<mxfile host="65bd71144e">
    <diagram id="AfCN-AF9MjH9aCa2j-An" name="ページ1">
        <mxGraphModel dx="2683" dy="1532" grid="0" gridSize="10" guides="1" tooltips="1" connect="1" arrows="1" fold="1" page="1" pageScale="1" pageWidth="1920" pageHeight="1200" background="#ffffff" math="0" shadow="0">
            <root>
                <mxCell id="0"/>
                <mxCell id="261" style="locked=1;" parent="0"/>
                <mxCell id="534" value="" style="rounded=0;whiteSpace=wrap;html=1;imageWidth=1920;fillColor=none;strokeColor=none;" parent="261" vertex="1">
                    <mxGeometry x="1" width="1919" height="1200" as="geometry"/>
                </mxCell>
                <mxCell id="691" value="" style="rounded=0;whiteSpace=wrap;html=1;labelBackgroundColor=none;fontSize=20;fontColor=#FF0000;strokeColor=none;strokeWidth=1;fillColor=#81B5A1;opacity=20;" vertex="1" parent="261">
                    <mxGeometry x="467" y="160" width="681" height="1004" as="geometry"/>
                </mxCell>
                <mxCell id="689" value="" style="endArrow=none;dashed=1;html=1;labelBackgroundColor=none;fontSize=20;fontColor=#FF0000;strokeColor=#333333;strokeWidth=2;bendable=1;movable=1;exitX=0.48;exitY=0.2;exitDx=0;exitDy=0;exitPerimeter=0;entryX=0.885;entryY=0.977;entryDx=0;entryDy=0;entryPerimeter=0;" edge="1" parent="261">
                    <mxGeometry width="50" height="50" relative="1" as="geometry">
                        <mxPoint x="201" y="333" as="sourcePoint"/>
                        <mxPoint x="201.15499999999975" y="1172.4" as="targetPoint"/>
                    </mxGeometry>
                </mxCell>
                <mxCell id="688" value="" style="endArrow=none;dashed=1;html=1;labelBackgroundColor=none;fontSize=20;fontColor=#FF0000;strokeColor=#333333;strokeWidth=2;bendable=1;movable=1;exitX=0.48;exitY=0.2;exitDx=0;exitDy=0;exitPerimeter=0;entryX=0.885;entryY=0.977;entryDx=0;entryDy=0;entryPerimeter=0;" edge="1" parent="261">
                    <mxGeometry width="50" height="50" relative="1" as="geometry">
                        <mxPoint x="593.9999999999998" y="333" as="sourcePoint"/>
                        <mxPoint x="594.1549999999995" y="1172.4" as="targetPoint"/>
                    </mxGeometry>
                </mxCell>
                <mxCell id="690" value="" style="endArrow=none;dashed=1;html=1;labelBackgroundColor=none;fontSize=20;fontColor=#FF0000;strokeColor=#333333;strokeWidth=2;bendable=1;movable=1;exitX=0.48;exitY=0.2;exitDx=0;exitDy=0;exitPerimeter=0;entryX=0.885;entryY=0.977;entryDx=0;entryDy=0;entryPerimeter=0;" edge="1" parent="261">
                    <mxGeometry width="50" height="50" relative="1" as="geometry">
                        <mxPoint x="1369" y="333" as="sourcePoint"/>
                        <mxPoint x="1369.1549999999997" y="1172.4" as="targetPoint"/>
                    </mxGeometry>
                </mxCell>
                <mxCell id="687" value="" style="endArrow=none;dashed=1;html=1;labelBackgroundColor=none;fontSize=20;fontColor=#FF0000;strokeColor=#333333;strokeWidth=2;bendable=1;movable=1;exitX=0.48;exitY=0.2;exitDx=0;exitDy=0;exitPerimeter=0;entryX=0.885;entryY=0.977;entryDx=0;entryDy=0;entryPerimeter=0;" edge="1" parent="261">
                    <mxGeometry width="50" height="50" relative="1" as="geometry">
                        <mxPoint x="1704.1599999999999" y="333" as="sourcePoint"/>
                        <mxPoint x="1704.3149999999996" y="1172.4" as="targetPoint"/>
                    </mxGeometry>
                </mxCell>
                <mxCell id="576" value="" style="shape=umlLifeline;perimeter=lifelinePerimeter;whiteSpace=wrap;html=1;container=1;collapsible=0;recursiveResize=0;outlineConnect=0;labelBackgroundColor=#FFFFFF;fillColor=none;strokeColor=none;strokeWidth=2;size=209;" parent="261" vertex="1">
                    <mxGeometry x="1248" y="128" width="242" height="1025" as="geometry"/>
                </mxCell>
                <mxCell id="577" value="OASE" style="outlineConnect=0;dashed=0;verticalLabelPosition=bottom;verticalAlign=top;align=center;html=1;shape=mxgraph.aws3.traditional_server;gradientColor=none;fontSize=24;fontStyle=1;fontColor=#333333;fillColor=#00BFC2;labelBackgroundColor=#FFFFFF;" parent="576" vertex="1">
                    <mxGeometry x="86.95000000000005" y="64" width="68.1" height="112" as="geometry"/>
                </mxCell>
                <mxCell id="578" value="" style="shape=umlLifeline;perimeter=lifelinePerimeter;whiteSpace=wrap;html=1;container=1;collapsible=0;recursiveResize=0;outlineConnect=0;labelBackgroundColor=#FFFFFF;fillColor=none;strokeColor=none;strokeWidth=2;size=209;" parent="261" vertex="1">
                    <mxGeometry x="1583" y="128" width="242" height="1025" as="geometry"/>
                </mxCell>
                <mxCell id="579" value="ITA" style="outlineConnect=0;dashed=0;verticalLabelPosition=bottom;verticalAlign=top;align=center;html=1;shape=mxgraph.aws3.traditional_server;gradientColor=none;fontSize=24;fontStyle=1;fontColor=#333333;fillColor=#002B62;labelBackgroundColor=#FFFFFF;" parent="578" vertex="1">
                    <mxGeometry x="82" y="65" width="68.1" height="112" as="geometry"/>
                </mxCell>
                <mxCell id="582" value="" style="shape=umlLifeline;perimeter=lifelinePerimeter;whiteSpace=wrap;html=1;container=1;collapsible=0;recursiveResize=0;outlineConnect=0;labelBackgroundColor=#FFFFFF;fillColor=none;strokeColor=none;strokeWidth=2;size=209;" parent="261" vertex="1">
                    <mxGeometry x="79" y="129" width="242" height="1025" as="geometry"/>
                </mxCell>
                <mxCell id="583" value="Service Owner" style="shape=mxgraph.cisco.people.man_woman;html=1;pointerEvents=1;dashed=0;fillColor=#036897;strokeColor=#ffffff;strokeWidth=2;verticalLabelPosition=bottom;verticalAlign=top;align=center;outlineConnect=0;sketch=0;fontFamily=Helvetica;fontSize=24;fontColor=#283C3E;fontStyle=1;labelBackgroundColor=#FFFFFF;" parent="582" vertex="1">
                    <mxGeometry x="72" y="28" width="106" height="155" as="geometry"/>
                </mxCell>
                <mxCell id="594" value="" style="shape=umlLifeline;perimeter=lifelinePerimeter;whiteSpace=wrap;html=1;container=1;collapsible=0;recursiveResize=0;outlineConnect=0;labelBackgroundColor=#FFFFFF;fillColor=none;strokeColor=none;strokeWidth=2;size=209;" vertex="1" parent="261">
                    <mxGeometry x="437" y="129" width="636" height="1025" as="geometry"/>
                </mxCell>
                <mxCell id="585" value="" style="shape=image;verticalLabelPosition=bottom;labelBackgroundColor=#ffffff;verticalAlign=top;aspect=fixed;imageAspect=0;image=data:image/png,iVBORw0KGgoAAAANSUhEUgAACDoAAAJdCAYAAAGuEbUwAAAIgmlUWHRYTUw6Y29tLmFkb2JlLnhtcAAAAAAAPD94cGFja2V0IGJlZ2luPSLvu78iIGlkPSJXNU0wTXBDZWhpSHpyZVN6TlRjemtjOWQiPz4KPHg6eG1wbWV0YSB4bWxuczp4PSJhZG9iZTpuczptZXRhLyIgeDp4bXB0az0iQWRvYmUgWE1QIENvcmUgNS42LWMxNDMgNzkuMTYxMzU2LCAyMDE3LzA5LzA3LTAxOjExOjIyICAgICAgICAiPgogPHJkZjpSREYgeG1sbnM6cmRmPSJodHRwOi8vd3d3LnczLm9yZy8xOTk5LzAyLzIyLXJkZi1zeW50YXgtbnMjIj4KICA8cmRmOkRlc2NyaXB0aW9uIHJkZjphYm91dD0iIgogICAgeG1sbnM6cGhvdG9zaG9wPSJodHRwOi8vbnMuYWRvYmUuY29tL3Bob3Rvc2hvcC8xLjAvIgogICAgeG1sbnM6eG1wUmlnaHRzPSJodHRwOi8vbnMuYWRvYmUuY29tL3hhcC8xLjAvcmlnaHRzLyIKICAgIHhtbG5zOnhtcD0iaHR0cDovL25zLmFkb2JlLmNvbS94YXAvMS4wLyIKICAgIHhtbG5zOnhtcE1NPSJodHRwOi8vbnMuYWRvYmUuY29tL3hhcC8xLjAvbW0vIgogICAgeG1sbnM6c3RFdnQ9Imh0dHA6Ly9ucy5hZG9iZS5jb20veGFwLzEuMC9zVHlwZS9SZXNvdXJjZUV2ZW50IyIKICAgIHhtbG5zOmRjPSJodHRwOi8vcHVybC5vcmcvZGMvZWxlbWVudHMvMS4xLyIKICAgIHhtbG5zOmxyPSJodHRwOi8vbnMuYWRvYmUuY29tL2xpZ2h0cm9vbS8xLjAvIgogICBwaG90b3Nob3A6RGF0ZUNyZWF0ZWQ9IjIwMTgtMDUtMDRUMDA6MDBaIgogICBwaG90b3Nob3A6U291cmNlPSJIdWJlcnQgU2h1bSIKICAgeG1wUmlnaHRzOk1hcmtlZD0iVHJ1ZSIKICAgeG1wOk1ldGFkYXRhRGF0ZT0iMjAxOC0wNS0wOVQxNTowODoyMS0wNzowMCIKICAgeG1wTU06SW5zdGFuY2VJRD0ieG1wLmlpZDo0NTk4ZDZlYi00ZjIxLTQ2YzItYThhZC0yNTEyYWQ3ZmU1YzAiCiAgIHhtcE1NOkRvY3VtZW50SUQ9InhtcC5kaWQ6MDc5MWZkZGItNjViYy00NzBkLTlkYzMtNzQyMGZjYjdjMjAwIgogICB4bXBNTTpPcmlnaW5hbERvY3VtZW50SUQ9InhtcC5kaWQ6MDc5MWZkZGItNjViYy00NzBkLTlkYzMtNzQyMGZjYjdjMjAwIj4KICAgPHhtcE1NOkhpc3Rvcnk+CiAgICA8cmRmOlNlcT4KICAgICA8cmRmOmxpCiAgICAgIHN0RXZ0OmFjdGlvbj0ic2F2ZWQiCiAgICAgIHN0RXZ0Omluc3RhbmNlSUQ9InhtcC5paWQ6MDc5MWZkZGItNjViYy00NzBkLTlkYzMtNzQyMGZjYjdjMjAwIgogICAgICBzdEV2dDp3aGVuPSIyMDE4LTA1LTA5VDE0OjMzOjM4LTA3OjAwIgogICAgICBzdEV2dDpzb2Z0d2FyZUFnZW50PSJBZG9iZSBCcmlkZ2UgQ0MgMjAxOCAoTWFjaW50b3NoKSIKICAgICAgc3RFdnQ6Y2hhbmdlZD0iL21ldGFkYXRhIi8+CiAgICAgPHJkZjpsaQogICAgICBzdEV2dDphY3Rpb249InNhdmVkIgogICAgICBzdEV2dDppbnN0YW5jZUlEPSJ4bXAuaWlkOjQ1OThkNmViLTRmMjEtNDZjMi1hOGFkLTI1MTJhZDdmZTVjMCIKICAgICAgc3RFdnQ6d2hlbj0iMjAxOC0wNS0wOVQxNTowODoyMS0wNzowMCIKICAgICAgc3RFdnQ6c29mdHdhcmVBZ2VudD0iQWRvYmUgQnJpZGdlIENDIDIwMTggKE1hY2ludG9zaCkiCiAgICAgIHN0RXZ0OmNoYW5nZWQ9Ii9tZXRhZGF0YSIvPgogICAgPC9yZGY6U2VxPgogICA8L3htcE1NOkhpc3Rvcnk+CiAgIDxkYzpyaWdodHM+CiAgICA8cmRmOkFsdD4KICAgICA8cmRmOmxpIHhtbDpsYW5nPSJ4LWRlZmF1bHQiPsKpIDIwMTg7IFNlcnZpY2VOb3c8L3JkZjpsaT4KICAgIDwvcmRmOkFsdD4KICAgPC9kYzpyaWdodHM+CiAgIDxkYzpzdWJqZWN0PgogICAgPHJkZjpCYWc+CiAgICAgPHJkZjpsaT5HYWJsZSBHcmVlbjwvcmRmOmxpPgogICAgIDxyZGY6bGk+QWNhcHVsY28gR3JlZW48L3JkZjpsaT4KICAgICA8cmRmOmxpPlNlcnZpY2VOb3cgTG9nbzwvcmRmOmxpPgogICAgPC9yZGY6QmFnPgogICA8L2RjOnN1YmplY3Q+CiAgIDxscjpoaWVyYXJjaGljYWxTdWJqZWN0PgogICAgPHJkZjpCYWc+CiAgICAgPHJkZjpsaT5Mb2dvc3xDb2xvcnN8R2FibGUgR3JlZW48L3JkZjpsaT4KICAgICA8cmRmOmxpPkxvZ29zfENvbG9yc3xBY2FwdWxjbyBHcmVlbjwvcmRmOmxpPgogICAgIDxyZGY6bGk+TG9nb3N8U2VydmljZU5vdyBMb2dvPC9yZGY6bGk+CiAgICA8L3JkZjpCYWc+CiAgIDwvbHI6aGllcmFyY2hpY2FsU3ViamVjdD4KICA8L3JkZjpEZXNjcmlwdGlvbj4KIDwvcmRmOlJERj4KPC94OnhtcG1ldGE+Cjw/eHBhY2tldCBlbmQ9InIiPz4BEGNbAAAACXBIWXMAAFxGAABcRgEUlENBAAAgAElEQVR4nOzdT5bTONfAYfOddw6sAJh6AqzAeJoJsIEAK2jYQIBsoGEFQDbQMMnUeAXAJFOoFUCtoL4jWqFdKTuRZF39sX/POZy3X6iyHduR5aurq2sXFxcFAPT5P84KgCE0EAAG0UAAGEQDAWAQDQSAQTQQAAbRQAAYRAMBYBANBIBBNBAABtFAABhEAwFgEA0EgEE0EAAG0UAAGEQDAWAQDQSAQTQQAAbRQAAYRAMBYBANBIBB/+PU5KOs6n0J8vNd29yY+/mAPMreZ6DTMFyya5trcz83kMUrRsaGGg7AFxqIxNEIICYaCACDaCASR5wBMdFAZIzGA9IYxchIJx7xeNc2H+d+PiCPBgLAIF4xAAwKnklZVvWPoihu9f2byzv1kWHAF7u2eeP6+91jKav6c1EUVeef613bfPaVwHRqOz72c2y41DWWMXabBp/7dlEU3123b2K93Qx+htVieXQfA8d/Z9c2P07tuu93fZwz34I1ECbj+d2fOfWBDbb3d1nVfxdFcbZrm9s2x2q6D3WMfT+j/i6FAKJpDsX+50yP2eZaOjb6gw2Dj+2vt5uvRVHcNfi5/ee8s1osT37pNXXcY+9dK5L3WpBXDJcTMvQ7ZVW/t9zeLZ/7903qieD6mU/9nu12Hc/j0cZhzPb1l/5k43B4PMd6GqHESJoTbyBcP1TfF6Ss6udFUTwJeRynDH2RY2ZAjt33kcbZabvS58J0+2O/5Ie/7/vap5g1m2qQ8v7A3/89ZqOpXYAjx3NTYJujSDU6oY7PVw9g7HZGNB6/+v5e+lVWtIE4FcTq/imK4lnn376O2Vbo93/fT5Jd2/TeDKcY7q/Wx9se2f+lzxP73JtuVwfAr/D9etDdnu/PW1b1UH7LdZ/7MRWlHkTfSd21zfuiKN772FbhMYAo1diUVf104J8Gv7hjHH6OXds86ByL0w0f+tyfGtXpGx0zbRz2Ixbr7Uadl+bUz6+3m0erxXIwWa3vsx655l0PTY5Xc+5pmoryilFW9QODH+v+fIx6COeW23/W95cqqDrw8+/6/rL7xbUxZshx/+8DcZ/em9rg3Dx2+RyFQY/B53VXDUN3OHO1WH4+/LsB/zjsrvean3Lk/nfqadqQ7kG8LYrir56/b8qqLkzHjIcYNDS1ydOgj23FJtUDKqu67wZQQVWTJ4cI0y/TkZ/rvakNzn3vzVtW9aNQaeKneg+nGgH17yY9kCM9ple7tnlleLjd30timLyQ7kHs2ub5iR/5bjK0dkRj8OeKsqqjlmubSIUop3Pv+OS94kjcx6gHZtBDOPlzBo3Hy85xuQYnXXtwXoi/Ytgk3+g/Ib68Ik+wBIc8P0Xab0ynHkrFkVEyZyO+sOcn/t3ptcSXIDEIy5P3M8AX6p7w9gcF7j2cTDWfoJMPmNVieWWU7MTPO18bg2zc3uM98XveG7ghwYKUtkNgwo3EI6kNJ9aLcIq/wC/Xh8KR37Nq4MYIPsxpMhHH0Idd20QL/rmYUnVqitVcNRSslPq9EKJlUqrRi1O9ihMBJ6eU6xBy/PLYDj3PyXq7kXhV6x0WPyX0vZVEqvWRDz35LrL0Bbd4MjU2U5BzrrbtkFnZN1Q/xCh5SScGJi/IZK2xoxNjblKVujpyKNVJKunexYnzdHhu9P83mh5vkhkY49z7tN5ujt23V0aJXJOXDO8X5+QzVyF7ED/7bhY1CWXMu/nQDVhW9T399w+7P+t++CKcupkuOg31pT8Dm/p+8G/1wM+9Ozbz87DhCfVZ90bmMOz9PLJ9p2C368MjRh1S0SClz2nDpwI5NsVRAj7d7xwLxPruZnoOdn3rbPezznztlei5P2nfSPQ1JGMmeI24DuexJmUNEetBeLhRr7zL+bi5Qt6gY9LIR+zTy+fbtc29g//vY7vfDH7GK5McBtUYHP459TtjciOGHEvvPyiBuO8FPiqEe2diDcTIG+rZ0LvcmO1Genr1zs6UPJaR275/bJbmmGM6bHRSsp+gZfjFN0lUujN0Hnx8bL0dL2nrx4i+YhhMzx38Hc/b/V1k1vQYfFKzM2O8fyd07s9tJ775NjTpaqgx6P79wO+dTFRSvcdjr2VHfq/v9eTF0M9L31vB18XQ4+2Xhi99tKo9J2rUTNEp6jlHn3ZtMzqrtO+GNqkoHtp6u3mv82dqNa3bdPfr7eZ3JXaJ14rUsXAOgEEsnANgEA0EgEE0EAAG0UAAGEQDAWAQDQSAQTQQAAbRQAAYRAMBYBANBIBBNBAABtFAABhEAwFgEA0EgEE0EAAG0UAAGEQDAWAQDQSAQTQQAAbRQAAYRNFaAL3oPQDoReMAoBeNA4BeNA4AetE4AOhF4wCgF40DgF40DgB60TgA6EXjAKAXjQOAXjQOAHrROADoReMAoBeNA4BeNA4AetE4AOhF4wCgF40DgF40DgB60TgA6PU/Tkseyqr+UyZ81zbX5n4+II/S9BnoNgwdZ7u2uT33cwM5vFYkbqBhUG7N/dxAFo0DgF40DgB60TgA6EXjkLgjIxPP5n5uIIvRikyUVf21KIq7BUOZCITGAUAvXisA9AqeIXlk3P581zY3LLf1piiKv/r+zaTrXVb1q6IoXp763cNj3v/70Gex7faf2s7Y/Rw5586vKGVVq2v103WbZVU/KIqiOfa7R4778a5tPloe8hXr7ebHkXyRF6vF8s2R43e+Jn2/a/h76jM/dPldF8Eah2M3qHZ9/zOnPqzBtgrTbR35/WM3jje+GpiBz2B8nkwb57KqnxZF8c5kmyPO/anj/qesavW/b3dt89x2++vtxuRd+u/1dvO3+o/VYtn3OV6on7Hd9xB1vxlkvF5pGCSJv1aom8nkJj34ncGf97mtE79zsmEYuvld9umT2r/DMVw/9Tv63482DIc/L3y9/rL5edUoGDYMfb/3tPt3u7bp7VUYnMOhxsz1QdQ6/t5JIWIOxjfTKa5futhf1iESvYaxn3Xo98dst6zqX2OOyWD7J4/NpVE48M7DNgrX3saRe+XB6CMaINo4uN5QfV8OqZt+rJR6D772ebgd/Yo1xnUfx3XimAdjEJ6+1Fe2deTaP+37+1NSe4hFmbJ97Mtv+9S0aUjU36eSI3DkCyeZ3PR7JuexYGLRf06Hurx3dm1z6XN08zEO/t713H/atc2joQBmR+/7+Hq7+eywz7FUb/n94UZG9Hx7Y0HS93Iy9RyOfVDb7rf6e0+t8LNd21y5yD1u9n3ZTnwher9whvu7wmZEYtc2qpvfNxLy+4t4+BlMttn5+3tlVasvZOXyOY4c8+eBYz7F5Dja1WL5u3tu0stQP9MJUn4oiuKJxfG4GGzIJeWc51Af+8cjXT6jITD1+6ZfVP1lMzb0JJBw6unS+febhw2Dq6H3YNMvtcET8Y7J9k990dUXXP95cPh3Q/vobPupPtbeV4gA8bEzl+3biNJzsHmFKKt6cHhHdzVtnRwOcuyutX1PKXWM+qnX5Zwf0Ec/qZ057Ld2PPcnmRyLepXRQ5nOBoYn/1gtlup16dqRBqb31WGI78YiRKEf6cbh/FgwyrD02feBvz/2/hmceloOXMhm3x0W1Nt1FnwnTerc2zrVMNjy+Br7m0ruc8nf8E30tcIm49FxbD47kklPvo3tkcTka4RiTEOyv9ZlVQ+9rg0Fn3uzfvdC3SviMQf9Qc5Nfz7nBiLVpKgRRgUVp+5gJOTTkY/7T99fnoppxb5vggQkVQ9Cf3GMgihT7UHk1GvQxLLvJuJP4zkUzD0VAHd4oBg/aMcKGpDsBlFMUnWPfWlS/UINvX/m2OANxVGoJ2GlNwDueg5tJyeOEW0oUw8VmkSmJ30jevp89/v+UqpByjkW4dmlIZMR1zJYb8BG9DwHwZl70YRu0HZt83Xo33TG4lH7YLDFHAjjWIRrKrEHL6R3sFosvTSSpr2B0PdViFmZYqMQplOSE25IjibaeHLXYpZr38zM1wa/d2zb72I0EMdqMdiMZDiMepyMq+XSGw428arzdHo19DNDTqVWl1V9b+DvL+3fx2cyZZrME2p/nfN/6c/Qz3a2+6rvZzrbvPIZehrkKA3EMaZp0rbbdU1OSrHBEAtIHkkRfllW9ZXqSz0OI+XHimt8McmYS2nilcRIgO9kHMPt3jLcp2ogvh57BfJN5Sgc+4IfzJHo/v3RiWnFuPwHp4l1Me5bydGKUZNFDvPzVXGNsqq9Vd4J5NlQPQvBefiD+zQ1cCP2Ti6z3G6whsGUz+nce8caU9eJdXud7dY9afleib1WjGnpjs22HIrMSx+T4/5G3Qiu+xQ6978ktivN8An/uDPh6u2pH/adfr134r7/89/d2qKSr8uieQ6nCqT2OFkTUD99rLrPqb3PhTge/fQyroNpekxS25U08HrxerVYXomnrBZLdf/9vgf7ehUWDcOVeUUC5+Km7YxgG8HXregpBuJUJPRgm4f1A76pugJjtjk1unbhpdcyT0VsRbYrYf9lt33yu/5e7ljUBkAvFrUB0IvGAUAvGgcAvWgcAPSicQDQi8YBQC8aBwC9aBwA9KJxANCLxgFALxoHAL1oHAD0onEA0IvGAUAvGgcAvWgcAPSicQDQi8YBQC8aBwC9aBwA9KLALAAAsMKbBQAAsELnAQAAWKHzAAAArNB5AAAAVug8AAAAK3QeAACAFToPAADACp0HAABghc4DAACwQucBAABYofMAAACs0HkAAABW6DwAAAArdB4AAIAVOg8AAMAKnQcAAGCFzgMAALBC5wEAAFih8wAAAKzQeQAAAFboPAAAACv/43QBfpRVfWGwoQ+7tnnKKQeQs2sXFybtHYAhhp2GQzd3bfOLkwogRwxbACOUVf3D8bd/ct4B5IrOAzDOLdffLqv6AeceQI7oPADjfHL97V3bfObcA8gROQ/ASGVVq9yF6zZb2bXNNc47gFzReQA8MexEkCgJIHt0HgAAgBVyHgAAgJXZFYkqq/peURSPOn/1OaXEtbKq1bHd0//3165t3kQ+JGSsrOrnRVHc6HyCNykOm+iZJ93ZJ0l9L00cfHd/7NrmfdpHfNV6u7lyHVaLJYm9uGKSwxZlVd/wOY/ed3KbY1GhK8YeV1nVr4qieOm6P13jwHSqYt19GOiHRWNzvFJJhmVVq+OqLH7lbNc2tw+2YXVNfX0Wl2TNI658Lp8czvOQO7u2ca2vYX3vda+Vp89wvmubGwY/5916u1Edmicet3tztVhadUYjfleM9ht6f773G8pkOg9lVatG73uIfdleZN+dmT4uN55L52FEx6c+fJMsq1pFVf6y2Ib3Rle/Lf5j8zt95zpUQ6EjZ19cftfBqId04bGjfMTrXdu8sjwm646rJMmHxnq7CdYuKqvF0uizWN4Xn3Zt88jg53ztz8eL2aQ7DsUUOg8hHswHjLPly6r+WhTF3YDHVlgen1XnYaQrnYfCPnqhvN21zXNfB+XrSy7dWAR4CB+Vw/GaHmNqnYc9nw+Q9XYTu2E/Xy2WRzv6NvfImHPjei+O6OCrtWveSe8ntqwTJvVNEazjoC6yxYP5IkLHQfkZ+0FjwyFM/peOMo2Ww9uBOsYUrqfpccQ8Xr3vbKt2+jh3qtOQQMdBuW5wLK9NN+Z6XvSwnhMdlXQx+Y5DkXPCpO7duTovikK9ve5Dsu9Pvf1avNU4j0H7eqvt/E4WNQUchkNUGHbSYcXAwxNGTp2DEQ++Z33JhQ7DWkpTVnXWjbI6j7bHn0iHoZc+therxfJS8rcabiqr2jjy6XJeRuYD/WPbzlh+B77ZH1I6sh22CBAm3of0X5jOeHBoPK3H8B32MThu7XHY4uQy02p46VRHJmDegPf9+Nzm2CRIzx1do3s0wPfRujN1pDPuY9jCaGn1MfsyPUcpdxwO9eVEWN47xkm9oRPT55Dn0EXnwZOyqq2ymEMm5BxpRJ07D4IzH5LKHQjdcLhm8wvcT705Koa/e8yoaJjlvno7PiMe6Pd3bfPV4ff2+7VubE9dVw8dh7PVYmk8DOijozK2AyHRmR+7z9Dtfwpm03nYS+Gh5+MYfNysLp2HEDd96g94yW37jCyFYHm8vcMTtsZ+1xw6D6M6DQf79nYPjnmQm86KOMb3/n21oQ5J2CaOfs9Ct/8pyDbnwXXa4MDvjJ03bnUcOSU0doW66W2vrclYaC7JkTY/n2Ej9K6sauNkMh8cx8kv8dVx0O74mDrp+uD20Wnobmu93TjNdltvN19Xi+W9g7/+YPpCdOK6+u44FMfyrCy/t3f8HVJcWc+28Nh4ft9nOnf+jJpXnBodZciGz+EI24xrVrw0k9s9lQLbl5S+c7zebpzOu8+OQ2ebvxy3e2UmmkkOSVffd17yxczD/s5jRgl9y35tCz19UqKx/6fbmRDYfmih6jl446MDoTP2bZIP62AfcJwUjjO7eypDfVNPrc+7RMfhwFvbX9ClsC9x+M7f7vy3deTOYX+/+v7bcH9RqopKmczCWPsbQTKnIfNORJvAMVhz+HJ3S2Dftpzq9zaj9RSyrWeA6Vktli6F23rzTiy/87+HgHRBPmMH+3hh8avXi/+KExq/lEwxmjnJhbF8lA8eMrZ+AiFxJ7VFglulaoDoxDybseUzn5UrA1Bvn7GHDWyuC/c+jNnkPTm07Wfd/6Om4pdV/bfpL89tSuaQ2SzJ3Y1MdCIUrm/jhwlCxiG7iQyBBKWjAR8s9vnO4QsutiCUlLKqP8bcf26rXiI5p9pfkSJKfd91wQd8LsOg1mbTeeiza5sHnY7Euc3v6ulAv9m+sdKBsKeTqc58b7dI6M3A4Tge+r6XOnk+h5nwQ4y/N9z38ay3G9Pr6cRl9sdqsTw69LZrG+/HfOw7JtEOTLmDPYnOg27sRpVhdkhmuTQdKObCQWr8bUKJnYMkogOphRQdV0cddf8P3D9fTO4plwqpI0vL923P6zZT55j8KFbqXLLCpc/vp+G2bPIffOwvW1mvqnliRU2rwi4OD94r5WlHLAtuXM3vYH+Dx2xYhc16SW6b45MSuuysCd/joB4+42D55BH36WCp6pBF206U1T5ZiMq2SJTv+97yXLUqQnr4l+vtxrmEuc+ZF6HqTXj4PgQtaz2H/J7ZVZj05USFs2RO6onjzLLzUHg4x5EfCFFK7HrU2zFP7HgHOxFT6DwUHt74XTsR6+3mkV40ytWd1WJpW+/CtcP7W8jI8FwSg7OcbZFyx2H/72MXN/LFR4W9FLlWGC0y+nLrz5jU6pomY8aJdCJU0uyjXdtMqthbl67w6HyuB3732WqxfK///bae0WNcBt+Adceh0MW1yqo+c6ke6fJ9H9G+PHP4nSxll/MQeb3+t6Y3ogrvuiRi+iRZ9yIFro1CZp/xqz7mmxEP45vNvZTAffdCH8NkOw57OnrwyeMm36lOhe5YfPfZcVDH6tJx2HPJeRp5H1rnPxyJdl10/vvBYcckx3y17CIPOjfgzw0R4qSPuQG7Y8SpH2uObN4Qcj43uq7I/s3e11Lqp/Y5dk2IkMf7TSI7PwerxfJ3J8khCvFhtVhaJ5o67Mdq5c5jLCMCo17cbOs/OA6NqI7fQ6cDjCz7IlGHF8xTmNfbKnpdPcf6ceyNQ+EdswZlSudp1zavugWixo4Ha2IP357jTfY7mrN9DsOxh7uPZMnuNvTQxuC9J1EW27QD4aMctMW+RkVBc4w8ZD3bAgAAhDfrIlEAAMAenQcAAGCFzgMAALBC5wEAAFih8wAAAKzQeQAAAFboPAAAACt0HgAAgBU6DwAAwAqdBwAAYIXOAwAAsELnAQAAWKHzAAAArNB5AAAAVug8AAAAK3QeAACAFToPAADACp0HAABghc4DAACwQucBAABYofMAAACsXLu4uOCMAQAAI0QdAACAMToOAADAGB0HAABgjI4DAAAwRscBAAAYo+MAAACM0XEAAADG6DgAAABjdBwAAIAxOg4AAMAYHQcAAGCMjgMAADBGxwEAABij4wAAAIzRcQAAAMboOAAAAGN0HAAAgDE6DgAAwBgdBwAAYIyOAwAAMEbHAQAAGKPjAAAAjNFxAAAAxug4AAAAY3QcAACAMToOAADAGB0HAABgjI4DAAAwRscBAAAYo+MAAACM0XEAAADG6DgAAABjdBwAAIAxOg4AAMAYHQcAAGCMjgMAADBGxwEAABij4wAAAIzRcQAAAMboOAAAAGN0HAAAgDE6DgAAwBgdBwAAYOx/nCrAn7KqPxdFUfVs8M6ubX5wqgHk7trFxQUXERiprOoHRVE0p7aya5trnGsAOWOoAhiprOpXJp2G4t+fpacOIGt0HIDxXtpsgc4DgJzRcQBGcO0ElFV9g/MOIEd0HIA4fnLeAeSIjgMAADBGxwEAABij4wAAAIzRcQAAAMboOAARUAgKQK7oOAAj0AEAMDd0HIDxbtpsgc4GgJyxVgXgiUkxKDoNAHJHxwHwqKzq20VRfD/Y4vmubagUCWAS6DgAAABj5DgAAABjdBwAAIAxOg4AAMDY/+Z2qsqqflAUxYPOX73ftc2PiIf0R8+xfd61zefIh4VM5XQ/lVX9vCiKfQLpj13bvI98SFam8N1dbzeHn+HrarH8GPGQkKhJJ0fqL3Pj8Ksvdm3zRuCQLjGZvnfI53Q+m/0f26/Jee7+flnVN2yXlZacxlhW9a+iKK5b/MqnXds86vy+ekBUpr8s8VnKqlb3618Ov/p21zbPfR/PMWVVq4fRQ8tfe+arM+Hjvi+r+mtRFHctdpvUzBrdSXBpG4vVYul8/9q2eb6+K7pj+neo/RURP2sIk+w4ODwIjvHaiSirWjV+Tzxsqh77RjOmAbV9+Pf8fjJfqrHHEqvj4NIBO+Hmrm1+edzeJS4d5T5jz9/I+97HZxA9z8estxufDf7ZarG8bfMLY9sNV75ekkzZvrTmVt9lUjkOZVW/0jeIr06D8rfaZlnVo4Yz1Px+fWw+Og1K46shtqX3O/aB9czmh6U+q7pnLH/lXOI4bKjG19M1OPRT4jzr74+37ertBQ2he/4MIuf5GNVh8NxpUG7Zbte2wxSrjfPAKZqTi8l0HPQN9lJwF7d042HVwy7+O7bDokBe6GP6KrHtvs/h8a0xlTFsq3smdrhZqMNwZR8+rnNZ1fcEG/6HoR4qgp1WdZ6fSmx7T6jDMLQf0074mfDhXKIj0DY/L3pNejwOvL/RJtFxCNwrtbqpAh3bXen9CG2/tTwGr8lmLp3AmEK/fY3Zn+7MfvF7RL37yfG+73pn+2AzFaLDcOClyT53bWM7vPHA4MeOsY1AvxuzM9vo9K5tsktAzb7jELox3bWNcWg7p4Y+hl3b2DYIxnkEhqyiQLHGIcuqfhRzWEpFDix/55dl4uAoGYez9677/Azr7eZ9hE5Dd/++951b2P9WAscgKuuOg+830FNsHhyR8w8mK0IYMSr9ef+JfBhfTDsPOtLgM8fIyBTuex9Djuvt5pfHPKoxx6GGLo4N690JcRyu90Wo4d9cF73LPeLg+w30GOOweuxGTM/cyILDF2dUGLFzjpKfKqWHUrx8Xg9ODjvozkWwSEPP/nPvPNzVsw6c6E5D8E7bEYO5OLa1c0I9yDuc7uOpv7jtZdtxkBoXHGIaVtfz6WOL/sYBL0QSal0ZNN7iOQ2nhG4XBDglvqrhicQ6Db+dGLawSZK0fpBnEJ20mlmWkpwjDmO+JG9VHQT95/WpH7Z823QpwqO8Vvs5/ON6c+XU87V9mx/72Rx+vx6zPxcJXj9VgGlwuGLM8fbd9yMiPMk9PG3Zdn70kECyLwtDnQfbJEkHY5Mcre5p25fG3Kqjds2p5PTZwI2q8iT+JDz23CzG8/YdG8+jFfH0v713qQyoQt2plNPOWejSwR5zd153k3n1G5hLYypSsOhU52D/7w4N+EXgoaVLxdgcK2N22XZ+RKfn+qA6D2MqThZxrqst15fG7GRZOdKhYp51udd9YyWZEOnwpu21VHMqlfz2QuQdOFTuPFmS2XflyJHXxag0s+m9ZHKOHY73w65tRKc1S9/3pvfeiH0ZlQKPOXvCwc3VYnmpA6rzeIyH5CzO+w9Psxvu79rGKL8idHXKmHIdqrCqre9StMc2XBrioaff+pIZFxsZUo7FKqQbYR0H5zd7fT2Mwp/qXtLX7sOx7bkeyxHfbDsNLsciNdRje8+PGG6M8fb6WEUFun+O3R8OrnRUHZIkTe8dX1MijfJ25pIUucey2nG8cN2r7biY0A19X+ihYpVLYFtoxaGQTNAKd5rLGP0H1+uhHuJ9vyv1Rn0sT8LA/RG/O9qIc/zettiZCR/RhoOOwpVCRKvF8un+3310IgaqS9qUcU9lltEYzu1/KnLtOFhV2kqtNzh20ayYb/n6jUtkapRDLoHtW4VVIZkAyVuXqEJPDr927vIGf6h7T0ndX2O3a3vfOZ7PoX2PPfax1Q99e2abc7DvRIw8jisl3n2Xcffd3p+a3m5bIC3EysvSsuw4uDy4dAU8kS+v5Y36TeIYQgjUYXlr88MOi1SlzLrQk+dGVyqSFIuXwlkez4nVmgTHkmTHRBt0BME5o193HpzbsROFoU6KMOX21PBm9GnIoc1pVkWhV5QsjsywCOG5VAdmiGqAEnzj6aVyCsqqthnffdmdFTNkimvj+z5Ghzd6qzcnT/e9CvP+7WE7wak1CXT7Y8p7gTsPEYP9du6NKDilch0Oj6O2iAgO7jP12g1T6ZjPreOwd6vzIPk2ctzVVoy66yErbPpwZjMMoWYISEwXxEm2CXyTXmo4lPV24/pw9LoK42qxvOFrVocaprTpVB35zovkQAxNBY1Q0TIJ2SZHeuy53d0vI5xI1cfZc4gGHZ1WmEl5advZG9knWMGZ08OxL/lxLF8RDAep1K6wqWhpNQybstxnVfhuPP/adyJMf2FMbXmgwyr8PoUEqxByWzpdSsQHfC89zHHJ2A677Swr22myY9v60FO7JWXdcdCNp81UHmMWHS6VLuIAACAASURBVIjJ3Awp8TVv36EK480czg+MzWo11RgcOyWjS4P3zHawmmXlUPL5UpRjbrUburKv46Czyj9JbV93IIgq5Msqv4NcCUyQyMuVEJs8jDHrcwSt0TKx2UrTKAC1a5tHwhfm55G5vFnMVsiRQ9ThsJyt7dtmtqvVYR7W241LbYpshmvUzBOX33PIY7pduLUxvyPMDjlJkzKpypFjVpM08GTgZgm6ABKOOgx/WiWR5bxaHQZN7ftp/cA6XB9iSiIMF+xzkWxyknyW7U7C5EpOq8ZfdyDuCGy+72ah4yDL6jqeqvJ2hPeSwIgv9MqmM+bt++MQBbCNwhy+XIoO5fio7JqaydZx0Iun7JfltV0RcdDhfF7b+cdTG+uSpq6jZdEcdZ2fOoQuYw85tRnW2zDGfQ9BVhVCDyOLKk/OcibdbJMi92axyNV+IR/deMVYuAjj2E6bym4Knm3HJbfGK3S11AmznXIYiu9O7yTyjabaYZ7d6pgqKWbsctD0OMNyyD0wXt+/4G04FKpG+mE9FDd2bYgYpPKNjnzXKahmYdbLauubKOi8fTodzshBOOBQo8JkmzYNNjUvAlstli7XPNUoRTKECqpNLilyb9Ydh0LP2/fwxjnZGyQVUjkIiUUbbJO0vIaHdaf2iWnn1rbmhURHB0ZGF1uKQeC7Gbp2w2SLj82+49DhfFPZ3iASUYcRswmQCJclsn3dSz01MCQiY96TPykpHZ/jQlfOy3K7OrUGDkOW5rLvOJRV/cpTIxf0wVtWtbcFZzpvipPuPAgsIz2JhmLs/a9//8pbqa6aeuqeuu+wLy/Kqlar2n5n+O80X6tY+qKW5TbcVJa5B1PvhEwh4vCy+K+RG1Po5OXI47CtG/HQR+fhoNGcfOdhBpzyBvT9bzWWrd7WDR66R4cudm1jvaywjwe9/q5/8bnNjDgtj73ebrxXO5TukHjMPTCdpZFTee5osu449DQW1106ED4etrpuhK2Hrg2eWgd+4Hcn3Xnw2JO3Kg4Rysi1Mm51logfHPZQHVZ97xjPPjlxn762PVDXNWDU7xyLkNhuL0cjlse2WoH1lL4VLlNlOkvDZbiwx+QTua9dXOT5XSurWvVE/zL88Tt9D3Yd6vzS/yvHDT3AxjReJg9F3SkySXb6cCr3wqFIUhLhNx8PCJ+fRSf9GY/fG17nVL+Yb/uWBx55vDdPdZh0dUCjQj+nzm/M+97Xvse86ftYYlt3GpySLl32P/b7YHMNQ+4rVzlXjjTtNBR6HNTnvkXG3Tw/LFTkYZKZveqLOfJc5TALRq34+jCB4zj0V996CSOvyU+f38/D6q5TpB6+rp0H/XtvV4ul09BFavkSpzjcCy98R2emJsuhithvY8fG3RJrsMh56JFDZ0qt+JrAYVxx4v4Onik/hITJk/5SHYD1dmOapKg6DD88dBpce4jWw2GuxuRVzGVmRnYRB5+zERy9PfVrHt6IfUryAeRB7ViNMJuS44ndRycbxV3b3OOBHc6YqEPHl/V2s/9/Ksr1Zl9kSi/hbbUOxCmOBazUvaVmz7kksLPEgIAcIw5Rw7d947sDP5dEz9NTsk9yXFc9PDWXO8HPmcp9ZHQcuR0vLlFta6MjERcCnYbg18T1++54/1yJuHWSlS/2neq+znVuHW4KQFmwvZkiN17fZtB4zqJiZ+zrmNl9P6tOQ4yHsaPR0xxTv64q4tbzd3/WReoef7eKao5Ruuw6DvrkWxWd8bjfYL830s2+m3hqbHMVcn6g6GM/OUwmtF/X3ws2Lq2dzzHS4Knz8Elt5/CPHhIc/dBfLZYxIp9jk9glazr8noWV66qxWc6q0EVnrul8B+mhi/Ox4X49Vv0gwAqBo481Q2oM89YcPqgeJnse6A2ldh0O2lPj0kVR+Krsempfcx+aeGs508yow6FzEv60KbqIlNWMA89RERVlfGLyg2OLR6m21OLetS3c9qKzbdd8rWiyHqpQmee6wRCZHqnDTF4exKoR1scqEl73eaw5MR3DnNKDZeyy8Cd80Nv3tiCV8PHepNPw++H83HRWyz6q4LifN51IhNG+XPYzJNUZUbaF2zqdmiwrVeZcx+EPfRF+XwhVUbEoirsjNif61q5v/Ke6at7PkZt7JrVuPdK3f2DqUtNjoy69RdJ88ni8Z7kluYag1n9YbzfH2r/HI6pOXqIjEUdndcTMv/DYmTSp6eA0c6PzfchuuCLbypGm1CJYJ9ahUD2+Rz7fsByP02Tq02sd/gWG7iPVIf1oUMny8a5tYk9t/s2g8marv6PZlDiO7fCBLvkQX283tw/Kl7erxTLLsXuYmXzHAQAA+MN0TAAAYIyOAwAAMEbHAQAAGKPjAAAAjNFxAAAAxug4AAAAY3QcAACAMToOAADAGB0HAABgjI4DAAAwRscBAAAYo+MAAACM0XEAAADG6DgAAABjdBwAAIAxOg4AAMAYHQcAAGCMjgMAADBGxwEAABij4wAAAIzRcQAAAMboOAAAAGN0HAAAgDE6DgAAwBgdBwAAYIyOAwAAMEbHAQAAGKPjAAAAjNFxAAAAxug4AAAAY3QcAACAMToOAADAGB0HAABgjI4DAAAwRscBAAAYo+MAAACM0XEAAADG6DgAAABjdBwAAIAxOg4AAMAYHQcAAGCMjgMAADB27eLigrMFAAAAAAC8Y7QCAAAAAACIIOgAAAAAAABEEHQAAAAAAAAiCDoAAAAAAAARBB0AAAAAAIAIgg4AAAAAAEAEQQcAAAAAACCCoAMAAAAAABBB0AEAAAAAAIgg6AAAAAAAAEQQdAAAAAAAACIIOgAAAAAAABEEHQAAAAAAgAiCDgAAAAAAQARBBwAAAAAAIIKgAwAAAAAAEEHQAQAAAAAAiCDoAAAAAAAARBB0AAAAAAAAIgg6AAAAAAAAEQQdAAAAAACACIIOAAAAAABABEEHAAAAAAAggqADAAAAAAAQQdABAAAAAACIIOgAAAAAAABEEHQAAAAAAAAiCDoAAAAAAAARBB0AAAAAAIAIgg4AAAAAAEAEQQcAAAAAACCCoAMAAAAAABBB0AEAAAAAAIgg6AAAAAAAAEQQdAAAAAAAACIIOgAAAAAAABEEHQAAAAAAgAiCDgAAAAAAQARBBwAAAAAAIIKgAwAAAAAAEEHQAQAAAAAAiCDoAAAAAAAARPyP0woAyEFZ1Y+KonhQFMU9fbi/iqL4XBTF+13b/OIiAgAApOfaxcUFlwUAkJSyqn8URXFrxDHdJBABAAAQH0EHAEASyqp+XxTFE8/Hcr5rmxtcYQAAgDgIOgAAoiqrWk2X+CJ8DG93bfOcKw0AABAWQQcAQDRC2Q1DyHoAAAAIjNUrAABR6MKQoQIOyvWyqj9ytQEAAMIh6AAAiOWfCPt9yNUGAAAIh6ADAGBWyqp+wBUHAAAIg6ADAAAAAAAQQdABADAru7b5zBUHAAAIg6ADACCWmxH2+5qrDQAAEA5LZgIAotH1FZpA+293bUM9BwAAgIAIOgAAoiurWvphdGfXNj+40gAAAGERdAAAJKGs6htFUfz0fCzPdm3znisMAAAQB0EHAEByRk67eL1rm1dcVQAAgPgIOgAAAAAAABGsXgEAAAAAAEQQdAAAAAAAACIIOgAAAAAAABEEHQAAAAAAgIj/cVqno6xqVa39eVEU1z18qLYoije7tvk4g/P2QJ+3hx4290mft88etjV7+trcK4pCLaX4oOd8qPP8Q/3vrm1+zP18YVrKqr5dFMVTj+268la3UbP9vpRV/Uif08rD5j4URfGK9seexz7LW30NfsX4HDlbbzc+vwvKWVEU71eLJasHAbiE1SsyVFb1Z48PCFcfdm3zNKezV1a1Ot53kXZ/rl6eU+mY6s7eS4lt79rmmsVx+L4m9bGAT1nV0g1etks1Sp+bU/eFdLtmc1+GVlb1m6Io/krgUN7u2uZ5AsfhhWQ7Z+BMt/nRX4RHLj97lMn3KuL93e7api9YPSvr7eaeDtD7ClyO8WK1WL4JtbOyqr8WRXFXaPNnu7a5LbRtJwLP8eT6+sJ9lcdzGGyNhaBDBsqqVi+qtzI41KQe8JE7nCbuxApCxAg6lFV9Q2clSHZ8jgYdijCBh5PHkJoA5+TmqZevuQQddPbC9wQOxVS0dspWIgH5Iee7trkRY8ehgw4JBdEOJfeSKGG93eTSZ9y7v1osv0ptXPj59mLXNsGCKMeUVf3RU8buoWSeAWVV/xLsQ37atc0joW3PXkHQIV0BXgJCCP4FFo5qSwr6ohoq6BAh8GN0HgN8v3J6UUviXEw56JD4y7CN5EaOhTuhkk4G4nwJEXTI9B4Pdg0krbebVIM8Ls5Xi6X34Jzkcy6FgHZZ1Sqb5YvU9hP5jKL3ecrZkFNB0CEhep7pP1P8bJJf5qmdtxANn3Aw4L7kw+8E4+BN7OkEKUgp62NqQYeMA6Cmoo0KlVX9viiKJzH2LeDbrm3uSe5AMugwEeLXwLf1djOVQOZRq8XSS7utMy1/Sh1n7Od9iIHKyIH7SV+/uSDokADpCGVsUl/mGXTqxUZhMph64soqY2TOgYcAI8RW9S2mEHTIcOqEL0FGjDPOajAi+Kwk6GAo5TZ7vd3M+Tp+Wy2WowJDZVWrejV/+zukS2JOnwr1IhetvsPUM1XmgiUzI9NfpKkGHD5JfJnVKJc+b1MOOCg/JzLNJmU3JY8t1eunX/AlX94+5FpQ04UqiKqv9RwDDsW+rdIBdO9UsEGf38kGHArdXtDmx6WvQVJTLtbbzdf1dnMx88DRXXUO9HlwomsvnAkd33Wd/h+UruMQyhOdcRD6M0q2ic8Et40DZDpEIp0qlADvc9qnnhFygtcoOpkO/wkxOp1SJD1AarrTvP8cMx2mPCVuJC/tf8IFCUPwNn2FTAdnUVcjWm83k87s8eDmarG0DhAJv8SGrNUSpU8csj8jWByzYHWb8Mh0iEC/5Ew24KAaJIGAw5QzQkxc1yMwk6+8HZq+Vx9L7jaVkTO9RKlkwOF8Lg9x3SYRcOj3fWzHXv/+XAMOykOyHqJ7GeMadDIbCDgc99Ml80H4pTlk3z5KnzjUd0IHVaQCDgUBh/AIOsQx1RTcM6HRxJgdr3M14qRGPHQa1mv951uk4/muR4ThkV6X+bXgOb2ul76NRges3knuP9ac1pDU94+XwZM+uD4L1Kh85POr0q/f6vag1v/7QT8LgtPBZpZxiyjU/bjebh7pl+ipTx31Sk+7sF1y847U8YS4X2I/g3S2rLRJr8YxR0yvCCxwISzXNGfVwXljuc7zY/3i5k2ElNBRKcGhi8iNaTSZXtEvwNSDSRZiKjw8xHOYXkGw4aT7u7ZxXm8/8KoUKohwe0wqtM4cEg3kdThPt2B6hTdiqfNjahXgEuMpF8LTt8Se9ams3iO8Kt0kpsDgMoIOgQXotIo0dMc6LULZDUE6c4LVwoPMtRsxmphy0OFMB73en3ow6PvyeScFb1TQoQizKsqzXdu8F9z+FTms0pF60CGBgMOotl2yTc3h+msqG09kilqgZ5brQEJqQQcV8HngGqAKHOy5xHefYb3dzHXFG0mfVoulUYBOeCBQorZZUveLUP9fsg8WvP+F/xB0CEj6wR+4uMvvhlqowZHuIAVb2ihAwVCnz5JQ0MF7howPATKSRo0I28hlWdBUgw4Ri/6KFrHz0Hn19gI/pQyjAC/E1p8lgaCDt6KYfUIvn+2rzVtvN0mMWE/VarE0uk45LceYYLad7yLnku2nWNAZZgg6BCT9ojeVOUpTXI9X+CXWpRMaK+iQTbXgAA938RS/XAIORdpBh5APyW+7thFZdvIYy8wsr8EQ6RVAIrb5kveNVUZXpKDD213bPA+5w4AZEKM/23q7+WE5hVXas9ViOWoEeL3dqHbkY0qfa0qBh4Sn93nLHphi/x//IegQUIAHf7T54r5MucERfqmyeoENHXTItbHP6aX9UG5BkxSDDgE7eckE4458Zu+pwif2N1b0Ua1Unmchgw4ptPUhvrdjPmcCAYfz1WIZJNtTF3iMWhjTJPAgPCV2dKZPKnUchqReM4mAQxoIOgQWqBObZfBBslFNpcFJqBMaIugQbBqLpBwDD3qlDMlOrcRc1aSCDqGK/qbYGepOKck1MDaDNt84qBIi6JDafRygr/Vi1zZvbH9pvd18lFwG8BjTUX8p6+0mZCH1SwwDD5Iv9s5TKlOr4zBkZHHzrGprwA1LZk7TE73M1v5P0BTHEaQa+zrI0ZsRO5aUllVTD5+pLJ8o3Zn23Tkuq1o6vfXx1B/getRLunP8LdXRF5XBor/DkgEHsfYhsfP6QWi7yaSwp3gfBzimv21/QS2JGSPgoF64Ywcc9HHc0McRfMlxkyU1hQfrxmRRZFFo1HVZcD0IJvW8fU3AIR1kOkSQyLws1eg/SuXLKLx00WyYdrSoL2IvkxUgpDNYxIobppTpEKCNzqa2iRSWH/XC6D6aUhFrG6k950Ivi5lCoOGYCMuE3l8tlieDDyllYGXYTlrVdxAu1EzhyMSQ6RDHnQSOQc2x+36QEaH+fJQcgTqCgANSd1Py+HR64ZjffyAccPgguZpCKkK0f3MPOMAb6SVGs5ZSe6WnFoRynnrAofgvKCKVCdTHKNtAOMPLeIqFnu6RG9tCrmIrQxFwSA9BhwhUdkHCI8Eq9e/nQSDil55ThsSlNMVianTRRMmA4XU92m9NvyhLztn+lnuRWguiS7hS0OpPgAzIml4tw1SoWgZtqCKRPqwWS3UOn4Xa33q7MZ1uLDUV9q5JP033ubNcTtU0O4PCkfND0CEi/aUIPrfNwfWerAhvnUY6oF7lUr8jS3o6kmQHqdIpwbbERgt0QdDgyzhGxOixvMlnzITC8zMqo8EYvVpFCCrDIbv7QS/V+TbQ7oxqceglaT8JHYPJEsGidRwC1Ko6mtEhnMWRQjY5ehB0iEx15vWX/yyzQ286AQin0dkOOk3+zOnlMAo9X/G14L5f2mSsBKg1MYmCoImQvG9yQmDHH56f8Zie+yBFP3PKcDi0WiyTGzAZu8zlMcee2wHrR90X3M3doYCoLtQslcXxlsKR6SLokAg190g3BCmttGCq6gQgXFKw6TT5E2U5qrnRc4Ul56L+YzKlKcflPGdubIAWQEbW202oqalTCGiK1k3aW283xplWwvUdrrwc66Lqkv5kAeglPKWyOYojUz7HrORxjMrKJNs3YQQdEqNSujpLlUlGIaW808EHm9QpOuL+tFP5IKnTNQ4kM5SOplcScACA5AWphbNaLLOfsrRaLEMV27QquCz4LLzVHajTtZkki6p/OMwCkMzmKHr6KcJ1HMjKTBxBh4SpKOQ+AKEbvWDFdjx4ooMPFKAMiwBOQLo68rnUHoce0GNXujiFgIMYRmH+RXDUH+mRUYxDJqedVKcaS/W/u6s9SNZmKoaKQQeo7/CxsFy5wxZ9ljwQdMiImkveDULoL9mLxD/Bd4OaD3SaPJnDkoapkY6u94wUfJWcRsPDW9TDCX82GwRHPdGr6gBTkeR8fF3LSSRYup+eLLHtPYPnumRm9cOyqp/rpfol5JgVPkv/m/sJyN2ubd4cvrTrFK2PCRXrUjUffgytmas6TWUlVsqi1lWIATHqgS7ZaVDb1vt4L/jgLkLNqU3cM4e1xo2pdFrdgZ0tFRwtq9oqxdkUQTMga8lmx+7a5oF0cEDIydUcVGZ1WdWfBAPjRquGOPiga1MgA2Q6TJB6iVeNY09WxOOIn/ZWgAI5fYYK2QBeBUhRvBBet/sOo6Z/RrQkiQU08F8qL5AIBj3shFjpw3lKZIZBzSt1HIZI13eQMDRlBGki6DAju7b52BOICDm39liBHLH0KMcVNQBrGY+yPmaZqUskK3qLFwHNhNS6/ExhQUqCDLbYrMiQqvV2E6oQ4Nhrkk1GoO1LeU59GLLa8kPQYea6GRFFUXyTPhtD2Q7C6VHvKGiJUDJ8EL5WAckEjiMZIUZ8cii021kK2XsGjOTSZgR1kIpUV2RIlGghxb2xK33ojMDkC7uP6IskXyOBgEOeCDrgj13b3AvwRR7MdhDetypoSRVphJLLSMgHio8OCjEd7bv0SiQu1DEdvLhf7wQgfE4/Eeu4E3hAQsQHdIp/MwWynR633m6yKiiup+EFua6OTtZxGKIHAUWz/UaKOVUcIxB0SITuzKUy9+91xH1/ENx2k2IHv0uoY4/A9EiI80M/kDPmQw7T2R8hpp/tX+ijF8PqBBuOrY7ypNNO3RuzP91xF11yNuUaDyrTpXMu+S5O1GqxHPU9sXB9vd1kV0Nivd08PTH91idvgU41UBfomG0Z13EYknB9h09kZuaLoEMCOiMyVacDEvMLH23f+iVIrBPa6eAn81KvMjB6lkx6QvAhb/qhn2oK5vnQajL4j5p+Jtwedd319TJvQ01567Q/tkuxfhk7/UJ6yVm9XFvQc3rK/pyrTJfOj74j+DBpZ4E+XJVTxsN6u/kYsrjuarH02qdKMc3f12BCop8tu2KX+M+1iwsyEGPR9Q1MortnoV4Q9Gib5JJ8Rg1ZwNTY8wCd3iv0sqY28xc/+ByVLqv6leQcUObb/Uf6XLtI8froTC+xZX7HfGb9Um37Qu6Lelm552tlET3NTHJVn7cu9RoCtvmfYnRcHc77M18rqUhf85Tbe+H7qtWBSSPr7SZ0h/tmwJoS1qZyPhz6c2J8fxd1sPbLFD8bwiPoEImHB6Gab/XcV8X5gJ3qetc2Rul/ETr6akTzttSygZ5eqrwEHwg6hKUzViSXuzSW6rVJOehQ/LcUY2orI5zpJfl+dP6ol6Ab+n9FA8gG7tg8oyLUYfgmmSJdVvUPD0sAjg4+EHQQYxt0kA749VotlkldH52JETqI+2G1WIplEZVVrQKtf0tt35BVe2sqhWcffcppIOgQWISI6JnujO6JdepN2DYcCbysqfP3yqbTp9Nj3wg/VEcFHwg6hOfpBWSUxF8Okg46FHoO/kFKPMwYZ5RFziopdHG45xbBcfW5ngfIZnIOPhB0EGMVdCj+feGO2ae5s1osoy2NHCGz4Y8QgZfIz3iv2bCHIhfm9Zb1hbgIOgSU6EhZMK4dk5RS1xLk9KAh6BBHzBeq1K9JDkGHPVZGsPLadoUUXdPon/iHniTrDjhBBzHWQYfi35fv6AHoEAGI9XZzQw96xQwiBs30iPVsCPEdjPTZnL5jSBNBh0Dm3kn1NMooXm8iY1Yde4IO8cRoC3K4HjkFHQqCoSZG18uZ+3PzBONUaoIOYpxfiNbbTWr9GTVl9+mYmgd62ctQq1AYiTG1JHS7Fer7F6O+A33Jafnf3E+ANNJx/TUa+7m3dEQvo1HOi7pege/hm1M4b6nRtV+u6elUwaqvZ3JufLX5v7dDm3+JaB0KhKGW0UzsJV1l4f5cbzcJHIoX56vFMniRcO1OwH7//UD7Ue3x17KqP4XK2KZvOz0EHQSlVDwukscS6+nSEf0tyqob8CNg4OGOVGFU/Eunur9Pqcp3JGJtEm3+b1FW3YCc1WL5XAceqBPj14vVYvkm1s5VBlJZ1W8DBJRUm/BVeB+XqDYoUDtsNFhy6lh0X+tPptdQIKO7miDBDjkEHQTpufa/59unUEQuINGCNnudjuicgjsU1JmIAIGHZxKVrNFPd/72bVLsYoghOS2R6aLT5s/peSpSkR5p0HUVrsUssjglqazUodpEnQUn9hyIFYQM1HcxGizpBgj2x3QsaKB/5mZ3+zN7XkdF0CGQXdvc3u8pxXX7PYnSOToI7kyx8QgSxEF4gg/v1wSn4tmP+E+47sNZ95kW2n7fEz6/BJdnRr0sr7ebGNlSb1XGhc8NrrebGMtHii6J6UI9B6RezhMYjb8vdK+eBWj7fpZV/WLXNm861+dsRoHsaAg6RKAL/v0p+pf5SH1turRYCN303szP6/3QaXOI5qbnF6cPtqsFQMa+7sN+45kXw00u+Dmh83teFMVtpkLN22qx/KqzHqTu42erxVI8mKWnNlya3rDebqSKmcas3XCS0MBCsDoOQ6TqO0gHszvX4++yqveBMXU+b0gW28W/CDokoDtSX/w3evM50c6T9fJnsfSc1xjRdxMqwnqPDuc8qeteVrWvwlNnZMWk67AAYOKB0Wza+r2Mzi/1GTBIFZks/n1RH5u5ebZaLKNlJHWtFsvP3QDhersZvYR8KlMpDPjMCghex2GI7/oOobI3dODhvQ70/l59Rtd9gDCCDgnSL5+91akDTs34VhTF85SyGMZSqVSH0ffioICMsJTO6WSu6xTowlN1URSjHnyZZzi8n9t9eRgYLf5b8ehNqArhKoNBt0uTC3omcH4/6XMbuyaD2v/ryMcQi+TnFr2u+xH89XZj1e/L4WV8tVj+CbpZBlfa1WKZ1Quizgp4pl5yPWwrqWe8foH3cUw+MnCGvutX2r+ewZk5t5HBXLu4oHYNAAAAAADw7/84pwAAAAAAQAJBBwAAAAAAIIKgAwAAAAAAEEHQAQAAAAAAiCDoAAAAAAAARBB0AAAAAAAAIgg6AAAAAAAAEQQdAAAAAACACIIOAAAAAABABEEHAAAAAAAggqADAAAAAAAQQdABAAAAAACIIOgAAAAAAABEEHQAAAAAAAAiCDoAAAAAAAARBB0AAAAAAIAIgg4AAAAAAEAEQQcAAAAAACCCoAMAAAAAABBB0AEAAAAAAIgg6AAAAAAAAEQQdAAAAAAAACIIOgAAAAAAABEEHQAAAAAAgAiCDgAAAAAAQARBBwAAAAAAIIKgAwAAAAAAEEHQAQAAAAAAiCDoAAAAAAAARBB0AAAAAAAAIgg6AAAAAAAAEQQdAAAAAACACIIOAAAAAABABEEHAAAAAAAggqADAAAAAAAQQdABAAAAAACIIOgAAAAAAABEEHQAAAAAAAAiCDoAAAAAAAARBB0AAAAAAIAIgg4AAAAAAEAEQQcAAAAAACDi2sXFAu9jFgAAIABJREFUBWcWAAAAAAB4R6YDAAAAAAAQQdABAAAAAACIIOgAAAAAAABEEHQAAAAAAAAiCDoAAAAAAAARBB0AAAAAAIAIgg4AAAAAAEAEQQcAAAAAACCCoAMAAAAAABBB0AEAAAAAAIgg6AAAAAAAAEQQdAAAAAAAACIIOgAAAAAAABEEHQAAAAAAgAiCDgAAAAAAQARBBwAAAAAAIIKgAwAAAAAAEEHQAQAAAAAAiCDoAAAAAAAARBB0AAAAAAAAIgg6AAAAAAAAEQQdAAAAAACACIIOAAAAAABABEEHAAAAAAAggqADAAAAAAAQQdABAAAAAACIIOgAAAAAAABEEHQAAAAAAAAiCDoAAAAAAAARBB0AAAAAAIAIgg4AAAAAAEAEQQcAAAAAACCCoAMAAAAAABBB0AEAAAAAAIgg6AAAAAAAAEQQdAAAAAAAACIIOgAAAAAAABEEHQAAAAAAgAiCDgAAAAAAQARBBwAAAAAAIIKgAwAAAAAAEEHQAQAAAAAAiCDoAAAAAAAARBB0AAAAAAAAIgg6AAAAAAAAEQQdAAAAAACACIIOAAAAAABABEEHAAAAAAAggqADAAAAAAAQQdABAAAAAACIIOgAAAAAAABEEHQAAAAAAAAiCDoAAAAAAAARBB0AAAAAAIAIgg4AAAAAAEAEQQcAAAAAACCCoAMAAAAAABBB0AEAAAAAAIgg6AAAAAAAAEQQdAAAAAAAACIIOgAAAAAAABEEHQAAAAAAgAiCDgAAAAAAQARBBwAAAAAAIIKgAwAAAAAAEEHQAQAAAAAAiCDoAAAAAAAARBB0AAAAAAAAIgg6AAAAAAAAEQQdAAAAAACACIIOAAAAAABABEEHAAAAAAAggqADAAAAAAAQQdABAAAAAACIIOgAAAAAAABEEHQAAAAAAAAiCDoAAAAAAAARBB0AAAAAAIAIgg4AAAAAAEAEQQcAAAAAACCCoAMAAAAAABBB0AEAAAAAAIgg6AAAAAAAAEQQdAAAAAAAACIIOgAAAAAAABEEHQAAAAAAgIj/cVoBAKkrq/peURSPiqJ40DnUz+rPrm0+cwEBAADSdO3i4oJLAwBITlnVT4uieGdxXG93bfOcKwkAAJAOgg4AgKSUVa0yGv4ZcUwfdm3zlKsKAAAQH0EHAEAyyqr+VRTFdU/Hc3PXNr+4ugAAAPFQSBIAkISyqi88BhyUn7oWBAAAACIh0wEAEJ0OOEgh4wEAACASMh0AAFHpKRWSfnKFAQAA4iDoAACIpqzqV56nVPQqq/oHVxkAACA8gg4AgJheBtr3rbKqb3ClAQAAwiLoAACIQmc5hES2AwAAQGAEHQAAsYTKctgTn8YBAACAywg6AABmo6zqR1xtAACAcAg6AACCK6v6QaSz/pyrDQAAEA5BBwBADLEyDiquNgAAQDgEHQAAMdzjrAMAAEwfQQcAAAAAACCCoAMAAAAAABBB0AEAEMNnzjoAAMD0EXQAAMTwMdJ+P3C1AQAAwiHoAAAIbtc2XyOd9VdcbQAAgHAIOgAAZmPXNj+42gAAAOEQdAAAxFIH3u8nrjQAAEBY1y4uLjjlAIAoyqoO9hDatc01rjIAAEBYZDoAAGK6GWjfr7nKAAAA4ZHpAACIqqzq90VRPBE8hvNd29zgKgMAAIRH0AEAEF1Z1Wo1i7sSx8G0CgAAgHiYXgEAiG7XNveKovjm+zgIOAAAAMRF0AEAkAQdeHjm6Vg+EXAAAACIj+kVAIDklFX9uSiKyuG4zouiuL1rm19cVQAAgPgIOgAAklVW9fOiKP42OL4Pu7Z5ypUEAABIC0EHAAAAAAAggpoOAAAAAABABEEHAAAAAAAggqADAAAAAAAQQdABAAAAAACIIOgAAAAAAABEEHQAAAAAAAAiCDoAAAAAAAARBB0AAAAAAICI/3Fap62s6gdFUdwriuJGzwf9of7s2ubz3M/TobKqb+jz9mDgR9Q5+7Vrm6/xjhLAHOl2vTjSPn3V7RNtu6GyqvfPyWNt/tdd2/xK7uAnRN/bXIPI1tvNsb5joa/Fj9Vi+WM2JwXAKNcuLi44gxOgH9SviqKoPHya86Io3hRF8X7XNpN/oJRVrc7b86Ioro/c1O/ztmubV54ObfY6HdC+zs8P/eczL1eYorKqH+m2yUe7rrS6XX8/1xumrOrb+pz+5WFz33SbP9vz6cpjn6XV1+BjvE+Tp/V2o74LTz31f/Y+qeuxWix5JgO4hKBDxsqqfuOp42RCPUieTyEIoUe0VAfllvCuVIf0UYrnrKxqqS/+a9egiw7+vByz813bXDuy/V8eO1Z9Puza5qng9kUJ3hO/Hbs2hfD+T+07FbptUi+wdwMd0pl66Zh60K6savW9fBdgV592bfMowH6sCH632l3bDGUlXFFWtXq5/VvoWPayboelrbebkP3GQgeFnsbIiCirWrWlT6S2n+JzxfN3/XzXNkOZLtEI91XuzGGwNRamV2QmYOfp0EP1p6zqQo/oP81tZKGs6s8eRwxNqBeH7/qc0RE6oKewfAx4TdQL3XfB7T/Ro0bZKata+iHb5nheQtAj758DBEH7qH02uo1SAYgHU+lwRTqvDzsd4mdkQPy5Dl+FA75dT8qq3r9ocg3+DTSIvnyfoJ7v39fbTbEfiAkVgFB9rs69MHk6aO1TqO+sMR24FEPAQRaZDpnwMQos5JvuqCY5xzJCh+cUq5EhKTEzHSQDZzFH07UsO7mxsxykjyHREalU2/RiTMZSbDptv0nokKIHnGNkOiR2HbK9n12ttxv1Avol4UN8vVosxa+J8LMtqcwmoWzOpPo0wtdzdu1EaGQ6JC5iZoMpNZr/U4+U1amk6epR9B8JRmor3WgmEXwIKZGXrMdFUfwjuP13Oj0+GzoFVdJ5TudDmnTKrycvy6p+mVOGlg4wS2YyudqPvM+iQ6ufvT8TOJSu/f08+cyH9XaTep9x7+V6u/ndxqwWS8k2phYMfj0U2q4rif5uMn0a3baIIeAgjyUzE6ZfTnN4eOypNN0LHSiJRk+j+JlialhHpc9VcvN/fVOfUd/L0Ud1Q0wJEkhxlCb9Anw7/keMTwXd9Pcgp3TfJ7qdSrozpkf4Ugw4dL3U5zK5OdK+dJ69qXo31WugVptYbze59RmVJ+q49RQQ76QHwlJ53ktPO0iE5LU8y+pMZIqgQ4JU4xEgDVzS/sEe9GVDNf76vIWs2zDWP7rDPEn6ekhmFrh4Lbz9lFNaLwkRIJz78naddinVqRQmXsZo00/pPCtTDjAfUpmBk1ppQd0XmT17f+pC3Nlbbzc3dLAhpSlFLvbBB4ln0gfB406lCK9YgdYA2ZCmJAsszyrzOBaCDokpq/prgOrOoXzXIx/idCcum5e9A9dT7NCPkXLgLEQKXUYjadKjYrXw9pOm2/Nc26U+wdr0U3Tx01yflQ8zH1j4Q7+8p55l0uev3K/BertJPbPExTsdRPFGeIpYTgFPV9Gz86SzgikgGQZBh4ToEe9QS6WFUumOtxh93lKbW+fie+ypKT7o65H6y4DkyEehi5cmTRd6EzX1pRiHdEZ+p9aeF52pYdECa/rcxljtwyt9HnObjtVVBV5+0bscp1ust5vb+sU8p6xOKzrrIYs59rGnNoTInEpgUEwyY/at4LbRQdAhERmmiBrbtY1Yp2qC5+1dQqlsLl7mcD0CFMfL4YVIOh33mfD2k6TrH+Q48mvrZ+ggaWeqypR8mUKwOXM/cwn+rLebXDNLXKhik76m50lm3cUeZAkx6DbZAYRd28yhHkYSCDokYMpz+qUaejUyMcHO594T6ewQ/PZN8jSkHDwKMbI3x/Xx9fc259oNtt4FnEKX+hKAY7wj8BBd8sEf/QKedWaJg+s662HUMytAQcko2TIBg2XRBlKE+1KsrhUQQYfIdCd1qnPCziQa+kSX5PLtLoEHWZIZOFrKqxRI31vSxTqTM9HpcSYq6cD5xAMOewQe4kv2GujpFHOoHzDkp4cik5/kDq+IVRw2WAZCxNXWJPtSOU9vyw5Bh4j0PLDJdlJ3bSM1B2zqAYe9u5lPtciBaJQ74WWsREct5rbe9ZSnxxm6LhV4mEnAYY/AQ3zvUppq0VmdAv8WmXTuE+3aRvKlOVZ9jZDPneArkUnXkqCAZFgEHeKayioVfR5LbHTCUyqGPJnJ+suxSBdHSu47HqDoVCu8/aTMsE0a4j3woLPa5hJw2Hs3pZWMMvUlheKS6+3m3owGWUyppTWTXHI2dCbATPqGkpkcFJAMjKBDJBOv43C+axvvD4WJn7Nj/s68wnmydm0jfk+FWCXCkmjRqV3bzGa9awIOV/gOPMz1hWsuhQJTFvXe0wGHuQXcTD1cbzeuUwRFBsS00JkAwQc19BK5IYllZVJAMjyCDhHoUYzJpuLu2sb7CIEenZ1z+jKdDzmSVa2LAKtEGNMrK0g6S+WzSptxEPSU6z7q0cz9/BLQii/WPUjAwchdl6kWEgNiMxOskKlwJgcFJCMg6BDHlEcxvBeQ06P8IZYEStrcO+FSpKtaFxErW/eQXllhFhk5BEFPujumNoEeTZv9+Q2x/j6Ouh66xoZepYGAg5kneglRW2IFJUNlAsSs9xWwPyOZyTGbjMyUEHSAV0IF5HgA/+s69R3EPBPefvSVSAJM8zgPMV0lNn0eZx8ENeD0wqw7tHNbFnDIQ+o7RPcu8AFQw8HOX+vtxurZJlxQMlTbFXN1LPFgqHRgY9c2rA4XAUGHwCY+cnHT9wYTWDay1dkb6s8L/b8xC+VNufhoNLu2kR41iLbGdYf0NI+51B1JZrpMqnZtc21EACr2S1e3zX+dQJtPfYfIyqoOUuGeVSqcNTpDJAnSgcIEApEhVuqQfFf6ILhtHPE/Tk5wsUbIWl0F9jCV/IH+M7YReet7lFM3rKGXFFVz0h+ZRkF1NPZzyONU0ywk6mbgdyVjsVGKsqo/xyqyGCIdcg5LTzHP/jQVcHD93QA1R/qoVOunps8vPd3vc8jpH+q8zG0Z2sTcUm2oZCbXiMKI+JcKVtq0Pc8Es1g+C6+MJT4l9BSV8Sc8NVUssLFrG5YljoSgw7Q9Niiac6XR0HPSrF6+hKrAhhzh+eDSEOlOyO8RXp3FEiKopKZZ3GZ9Yb/UPVxWtWRqZKx1vBXpe0WyIngSIr0Q5+TcQzBUuuZI12uXF3kdkP79OfUIeIgsJnVeuP/i+rG/7r6tt5tHEQZYJme93fxYLZZGL/squ7Gsaqmgg3SbkELm5Eep74Pw0qMUkIyI6RUBBZyPX+v0Vqf0JPXypUerbhpWo5eYVhEqEnmuz9Xo/el5gt7PxQBSbmWIplFHfHEVHZWdSUXwkC/Ep3zSQeVrfX/0iizei/oe8W1swEFlAkkfpNbqczb6u7hrG/WCc9/XgR0T8PyEdqbv1fsD9/J9/e+xV8aRbENDL7U4Vbd0AMeU2PNeqg8burDpEbl+HyggGdG1iwuyRUPRnQbR0c4xqa3HHDn2ViJlPFAas9NIlwldi0J65OKOa7ZD4mniar7d+1Ope3r6zVP953fk38f9L31upL6jQwK0O16+R5Lnfew5DziifYxJ5lov4Wlgb31kugVqk+5LFRALcfyu93GC7b1TZmERaUpjh/f+znq7+cVKLX6tFkvj70nKz50+iX2XX+zaxvtqHbldE5hjekVY0unVYqPs+wetXrbx+uHf+xQokivW+Sz+PS/3AgQevlvOYUyZ9QuVDri82qcd67nWPpxJvmCq1MHAmQHSgc5Jp33rl5xYAYczPZo+ysE0sFceszae+SjCGmIUX7qzqbZ/+Hz0LWZdGE+cA+V7B/ey+EDOAa/7Wm83zwk4+KcCOavFkrpX8lRhc69BB+GlQCkgGRnTK6YjyHJ1OoV2P39bKq1Ueokq0YDDngo8SKeEBlwvWULbSaMd/RLu8ZpKr8IQLJU2wHSOOTzEY9VOuekj4HBIBYn0C/jYterve1z1JcsMwJ79SLfHMevCjHFHt/Nev0s6AHMn5AfxPN+c1ahkXF9vN6bPcbHlsn2/QAu/kKdCbClQCkjGR6bDdAQbbdQviFLTOKSXAqpDrs+rXhqE0+G+CldJluBl9FaKCt6VVS26j4CFQEXrEEz9Ia6DeqFHIsWmfXWpGjT687ksUXnTV5A7QGAsVJ2d33TGg1ibr2pDSaQ0CxG/l3U7KnrOD7z3UUBvvd2kWqPjXI9ef1wtloN9pfV2o57hj/T0xhSLYH4x6acKF5R8os+Pz+0lRRVQ1/XMRktgKVAII+gwHVNZbknyQdwKL/Ez5Kbg2vMpVDG2MTq9NtRxChfr/CpV+XkvwDSlb8LbT0HodjXo90MHDq7ZTAUTyBqQDIw9DpEB2ENyOT7vKc0SQs+dlg72dPgKQqaUtfJ72djVYmn8XVktlj/0ffjnXlxvN9Yrn0labzfqM5lkB3yTCpyoaZ8+BroSfiH3uWKbZP9cdiQJRpheMR2hVsaQJvYSHWsurO70Zlcl2bNvEum1UgIcZ4jRc9FpSnr60NQFC+rF/H7oa3lqqsy57xdJ4elh57FWVfE47SRH32IVawu137H3rVra0d/RjPJMFV1cLZaPbAIOQ1aL5XNdxDHolJcjTJ+Bkn1DXy/Sya5e4zEgItn/n+rqP1kh6DAdPqONUQi/PEeNcgoHPKRrYIz1OtMX1McGP+NMsnhegFGRya91XVZ1sNHkFCpq66kyQ/ObRy+JOUDs5TxAfYVTxF68Ep7b/SGBtl603dbGThmJnaH4WgcbRO4jlQWhgw/RR5dVtsOpnxHOhvI1wJByVuvovoyaNubnUHpRQDIRBB0mJPFlEE2IvTwnEuWMvc54DPdzXd0gwCipZHqt9LSAOcy9DJUmHLTmwDF6hP6wgyb5IikVLI/e1gpnrSQ3t3vMMpg+BcpucW4bImc5nOtgQ5Bn8mqx/KyDD2KZngZM+5WSBSVHvVBnkM3qIyAiVlSVApLpIOgQlvjooAo8ZL6igYQXiRyHz6rXl5RVneIyakFWCRH2WnLzgqPpotM3Is2Tn6IXqZ1L3UHb1+t4lmmHLZXMqrmMsLWJ3SeppPf3iTVi/SHWMpKrxfJBoAyUXiYrWQhPiRr7Qp16Nmsu03wRGUGHsEKl6/4Mse65T6rYjtS2U6n0LfwCnlphsWcTCDgUAbI0vI+m66KAkiZfkClQ+vp5qqsQ6MwGn0tiXiE5fSWhQI5YynBCnfzzWPWShqRaO0gXWoxB1W6Ier+sFsuPEbO6vhj+3ByKI0txDoyoFTAEjytasAtXEXQIK+Q8zEpnPfzIJPMhyxT8hKS0ZNWniRVSEx2tFHh5EL0XZlKQSTx9PYGaA0cFCBpKTV9JZhqbcPAjlWdmqitpvJXcuGPdnBgrOzyTqt1gSxerTGY6WQ+x4JnrQGDC9Vt8EqtJF6uYMPqxZGZAKvpeVsEHCW/pzAf13293bZPqKhdSjc55olMPpiyXNeSNqLThsqolX0Lf+QpIBuigiM17nZmYc5yn7vNM2vzclksOSvV1yqqWfMl/ZPOsW283MYKML1IJOOypwMN6u5FekvoKlWWiVtc49jMqSCjYR3et4ZRi/ZZeqv9hO81KuK3+JLhtOCDoEN5ZxM7CX52H8ItUU3s9U3Pbm0l9ogFq5CWXJSkzJLaOd+H32ol2UOawFGCIF9bU0tEn5klOHXVk64FlgD102/lttVgm2cdTq1ust5tngWsV/GU43emFVFFD9WyxyRQMsAqVb6rdtc3cFOuf79pGrI4a3DC9IrxUOpt/6+kXF8JL1SAcCvkICbAM3OhU9gBzvEXTlRMi3R7OcRWbSyg65keGLyVTYvtMCLqs+WqxTHqZap2BkVxbKDwYZ/uCnd1URgrZ4xiCDoElOhLdDUAE7wwy/cEborqyJFef8bHahOioUcJTs3yTfjmgvSNA6gtt/nGS05hSnt6Sct2EP1aLZdCg2Xq7MX2GpRIMyXEKlU0mh2SAhwKSCSLoEEfKyzm908GHXwFHUeiA+pFSMckpEv0+qKKvI35X+rtKDQJPmAL1m+v8ZlxG0OG4JEaK19tNyKKf33TBxlyEXNLc9DqIZYmYvmhnnA1m0w8Vq7lCAck0EXSIQHc6U1+aR428ftcBCOl5gYz8IXkBluEbM6ohWpSLGgTezH5qBbwieHNcKss2vwy1o9SnVRwKXHfCKKNQ+Flv+qIdst6FV2VVnwyGCg+UMEiSKIIOkQSYI+7TXzr4IDVqQBVu5EJ0+RmX1ScCzKHkRdkflgYGwslpxN+H1AezhqS4KpJYBkYCdQ+kn+n/GPyMWBYSgyTpIugQVxbz7joqHXwgPRizZFN52pFL1X3p0bysRs7GkK4vM4fVP4CEpJLpEERuWQ57IZf1XG83RlOShAtKHu1HBFj6+kECy0ky2DhDBB0i0ilc9zM89Fs6+EAHGnMkOirjMJdT9OEdYFoJAHiXQtu13m4YdTUTKkvD5vkqlRFwqu6B9NLXP6SXkyyrejCrT7heRYpZM9AIOkS2a5uvmQYelCc6+MCyXZiNAKPVxnM5AwT+Ui56K4EXBAA+hSr2mfuSxqHOk83qRGLPg6EX7wBTLz4Ib3/vWB0TsXoVZBOmjaBDAnTgIbepFl2q4CSVYjEnog/usqpN02TFR0Qktw8AExfkZXq1WGa9pPFqsUzuWSP8/Bt68Radwrlrm26wQ3TlkAi1KyggmTiCDolQaYC7trmWcdG2h2qZzQSOAxB38OCW8OXUNsuqlu5kss41AIzD3PW8vQ589MGWPheuW6FcyTqQHKCkgGT6CDokZtc2tzPu7F9X0y0SOA4gBNGousEowd+S+2edawBAQLGLG16xaxuxFYcOp0eaLDU5Ul+9g3PB/fVNZbGZ3oKJIeiQINXZ11kPWaYKEXjAHASIqg9WXpdeZSHC6A4AwM1U0spTnY8vlYF8OD3SZKlJZwP1DkT7Et2posL9FgpIZoCgQ8LUS02uUy4IPGAmJL+bx9JyG8nTKzm6AwDwSnop5yBWi2Wq2XWSBSVDFWLv7avomnKSuvem5NQKCkhmgKBDBtSUixwzH6jxgBkQXRe9b3WKCVW3TtEkOu8AZoV2y4LtMqbCBSV/X7uyqqXrKxz7zJLTWq4P/LdPoZZbxUgEHTLSyXzIJfX5+rG1eoHcBVgHvm91CtGRiQBFMlNGoBQ5obMNhCG1JOk+o/EvyU9xLHCyaxvRWhKq6LVwUIUCkpkg6JAhlfqsgw93Mph6cWytXmAK7kh+hp7AnWQ19Fm/xEinmgYoFIZ5odgrEMCubcRWiwowOBc7e/FvyaBKgMEfePI/TmS+dOTy93ww3ZkVLULjqqzqH3pVjiFnQi9SZyf2C4ymvodlVUueSBW4+90pkVxuqvj3s4hOF8Hv68iLopzX1CMBIOS8kJkiIDo4Z5i9+EJ6RSwhFJDMCJkOE7Ff8UJnQKT2JTwVUJCaj8j62AhF9DvXqfosudyU5NJZ+FewNdhnikwSAKe4joxPNii/axvpmhIiKCCZF4IOE6S+hJ0AxIsUPmFZ1cfSlmk0kLUAD74mQAomWUEBBCgEmgOposgEdTBHzGm3sFosnabRCReUlGIzIJLbwEN2K/vNHUGHiVPRy04AQrJC7SmDncFd24hVXg64HBEgXeBVOgWTeZH/kp7/SqV5As2AT5MIOtiuKhFJVqs7WQ6I5HYfMR00MwQdZkRVqI05/aKs6hgNRJYpY8hP5nPJRYtSZEa6zZj9aLxkZhDFOjFD1UQ+slixRl8yW93JKhNAupCybwyU5Iegwwztp19EeNGIEQCQnAMPHMpqFGRPMtsoNyE6XtIFQWeOLAogT7n013KZhuCSuRAzI9pGElPHYYegw4ypFw0dfJBaf/jQsWi8WEPHFAuEktkoyB7Vn8PLonNdVvVFhjUoJKrLA65mvQzxRGUxDcGlBoXKiJY5Gr9yLXw5dwQdsF9/+E7kMyGZVvddcNvAoayKG1H9uZd4xkpZ1UmnhnayMX6WVS0RTBMLdpNJgoQEuRfX203WL2Hr7SabwaFMpiFkmXVpiAKSmSLogN90RDRa4EG6KjDZDghl1zY53WuhspyyEihj5XqAFUmc6LoI3WyMdydWILKmg91SmFaHVISauvZX5lc8VKDQ18t40i/1I59hqU9dYLWWTBF0wB/6xV9qKbPfTqTqSs6TI9sBIWUx51P4xQ+nvYxUYHeQPp5/ev79bk7TLcqqznF5O0zMarGkXo6ZUAV2vWT2ZTqV0kjqUxcyXbp09gqCDji0axvpCOKxDrZoI15WdfLph2VVk+o+DTks5SQaYJyAUFkgX1J5kdcBhy8nfszndAvJomW3Ugvo9El9mg3ysd5usnwZW283wV7gZxIE8lGnKdWBE+mlySGIoEMCVMco04JdXu3aRjq97q+Up1nogMMTdS8kcDgYIYdIfIAAY9YCZ4H8jN3+6ykVpwIOe16mWwQoWmb6eaLQ5/A6bf7khXqBu5XpiXyXwDG4SHKpaU91mpLsH2S+NPnsEXRIw75jJFWwKyfSlZ6TnGahC5896fx/OqH5S7JDolGIyUzI8/RTv/gHp9ufvikVx2Qx3SLVtlRnONzt/H/a/OkK9qKUW7bDersJ+RLptT1PdKlpL58x0WKZ9FsyR9Ahsp7RonczT7cUj66m1rnT1/tK4TM6oXlLtEOyl8P0jxSEPk//+C7YeIwKGOh2ZkzhxbHBEvElW1N7pupzfmVpT9r8aVotliGndt7KaSUIVdcm4L4kstdSKyjpsw8tOf3NBdmZmSPoEFFZ1Q8Giudc1yNIwdOIAtQUONr527VNkM5hCiN0nQ7/4LrydEKzJ/5C5SLU9yx3+jyFntu6zyCQrnGjgmI/PW3OOVgSaMnWJKYwqGf+qeOgzYcHWRTOXm83QZ9Dq8XS+xTe1ApK+pzaGWD6mxUKSOaPoENczYm9vwzR+dzTL+FPzH7ajWHKVqilO3/qwE9wOp3iB3lyAAAgAElEQVTZqMNPJzRfgV6obEVbGjdTsUYN30m0/yqwrNuUyud298ESx98NUhwsZrBZr6Zx6pm//1na/OkJOmq83m5STI//Q0+rGBxwgZOkl/EcieW9J4CgQySWy3ntO59iLzC6I+Zr1GuUwNHMJnA68wOXdGY6oVlLqiPAaIEdne0Qcy7pvv3/4TqNQQUu9DYupAPLej9Wxxm4ONjPkCsZqYxFfd6tivzR5k/LarEMPWp8d739f/buJjuKY1sDaHHX6xuPwLhbHcsjKKqrDmICAkZgmIAMmgAwAkATMHTULWoERh11jUZgawS8lfgULsv6r/yJE7n3Wlr3vvtsyKpMZUae+OLEQZG7Ye0fHmz1vKxi0nHqsIj+TR2lLp518GfemO2963DnyxfPtb7F7Pq1Zjwu8aStWdRYxtHLA+B4ubhznX9uoCLIi64Gvy2d82t/f9c4ni5/8eeF9zPoXUEvEK3dN9rW5XfUxu9NoS+Bzbanq9+1j9GD4m6sfW07yXBTR8fLxbV7Ykxn82ZQ+bLnY+zsXhUJlY278ie4djt7brahpPvK/uHBEPeQJ3vbu8Xc86Pg0PuuMnvbu62MnS5SwvOhrfHhWQV8ttPj5WLUu/vVQtJhGBu/fK7NfjU/H28zA9bM9sTNpK+K8/K6/+BAs4u/tp0oWfuO2zjnZr/yuva136VSCw5JFDHjc8Ys7t+/xj3mZfz3oQsOk5sutzheLvpstreyiHt+a7NozdK5+NytbAPonl+VXpYRnfGmlMTDUAWHnsaSQzdd7DLJ0Xdfo7M0vq6EpEPPoot2n+vY1l92tgZeQ/fjTaPdBQy4mmj88+se93Q234oOyV33xtiooi3p0L8CrmUzkhsa4P5di2vd+wtZ5te8GL66brPVSLE977rQs8k1LOnQjduck4HSDo2jve3dwV7eoodD30sqVr7f297tvGnlkM/4rlIOk3/GtUMUi77q8rPRr//zffcn0gh9D1hLmPH66pZryR/eYv/4NjXFg0fTWRFL9r5pHm5uxOmc3HRdd5tKfjHIool4mnm+sdPr3vubF/3pbP5hwy08N/VrpN4GPIT/cs+vxnKgcdlPUfDo5QV8XexSMVixtu/PO4BOkxxNA/gB74caSFbE8op+DfnyPLRbRc+Ol4v3AzdxK5aXn3SGjAjW3NW6b2W9jRbupmtxS9umrSTu+fntbe8OsmPWmj/3Dw96SSI26YYodAyZDuvzfv2wx79rXR/X1CDLRzSQrIuiQ08iljtamwwkj5eLobasK55BaB7XjWt3obS9xDOLpUOKONfz/W3+JTP6F3PPr8LQEymzphjQVa+HtWLDUMspvtnb3u1tqWdMkvWujx2pBioGD91LgpYpOvRgoGUVJWmjid6tBq9jYBCayo8DHKykUMuiiON7vdzPGxbafu7jIDMa+yRGdnvbu6VMpDyK4kPzs1FhumkSuX948LmUYkMYIpXWdyKg5gL40KkgWqanQz/GvKyiGaBvfOOItb4/D9nMpmAG50k0MxJ9r42UFOpG871qLHmhZmvWT5v8AbGOuFnP+0u3h5qP7eOqMFRvh4s0u1ysdlxpCqpNCuLjeUmB/cOD+/FCWMLWvBfqM+Ww0iQC+pwI6jnF+KzPbY03fYZQHkWHjpmRaG+NWwxCn7S1FVklNh7c07s+r2HxxA5pLHmuJ21tzdqs540dLTrdDSgZqb8KNL0dBtzJ4io/rBqq7h8eZP2y/Z60rNnWeDqb91V0sISxQpZXdCj2/h7zLNhR22vcYjDb5X7EmbQ2uKc/PZ8z+1t3LPoPKO78rfV7UszkHbX5Zyb2/ZC9YWjdUI0Ha7cceMeKvsaoz3r6e9b18qy7ToJjOps/b4r+l/x8jH/uy1WTA9PZ/HH8c5Z0dEjRoVu9xZBKdLxcdPLCo/Dw1c8KDqm96OPg+2gwxbe4+9gLD50VQeNZMvaZLwWHyuxt775332jf0DuE9DU2a5IHffw9Z/Tx3XbyOzGdzS/7viSoe6Do0KGYARtls7Guu4/HTX2svQy+t6Qit+Pl4nkPH8DWjj2KwkMbTXMz6rwIGjNfQ8zsDa55nio41Glve1d/jnYN0az5PF0/CwYpVvU09rxWYaMZR8W98c7a971c/W/n9JM7tz/QdDY3nu6JokPHoonbqAb/fW13Fje/Ma3bOzX4rEqnM7extSM9ikHOqFJYcU/qZdAWM3tjKjYf2T50FBSI2/Fhb3u3iHRfGw3UrzBkmqPTHTq6fJ6c7bMXPYN+6urv4980kuxBDP7vxPqiYjv9tqHvAVK8gDff7edoflSr101TtYo/3+g0M7fT2byrBnljX340mGbGfzqbN7HpPyv/qEddLaG7TAxI74yggefDofb9p1/NLgv7hwdHBbz8NMfw/qJdK87aPzxoJtV24mfwse3e9u7O0MfQlyHTrh3v0NH1Mrrvmr4Na5MytT+ni6Lo0KOm8hlVtRov8kEGoCuxfd1OpduTWstbr5MuimX6fQxrrRjaDOAfVPgR50MnaZoCd6zRrW1LzVNbYo7P3vbu1gC7WTTPn8e33VoyUgWv4uerKES86vu+t7e9W2IiqKudqjpNGgyp4y1AV+OtRTyf+1jmyhrLK3rWDEYjDVDKurM2PByy4LDSzApV1kfjheUUdYvlV20be8O9YjQzQpUtATuJe1IRS3ea9Fdlyw/mCg7j1eOL87z5u/a2d+/dtuBwkaYQ0SQO4rP82NN4rMh7bIeNdUtIdGTsr/OtoDGdzd/GtrCTsfYKGoKkw0Ciq3xTaWteOv5I+jFOOnpp2kikHjInSpY9rAekHKdtbq3b8UwBN7SWergfMyxZFZu4itRD5u/3RU/NZSnf9x2NXU6aIkOfnz6SEF//zv3Dg65SXz8PvD3mVUpYNtO6pr/OdDZve4e+PnqbzOM58W1pa0efhXNIOgysKT7ETM33yWbovy+x4LCSNFHy4YKOu9StzZTQWHdPKF6TDoh7UrZ+Gz9mSFwl/X5XaTYFB76KF+g2Z+6bovb3fRcczlpLPxy1+Mc+2dveLX3ngbbHcyXNyre6g0YfCbr4O9aPe0zN6Aen6FCIeEm+F4OmUqM+p1kGoCtJijrP4jsdTRMk/hGpp1YoWJWvidzGPenngvfoP1m71xfRDf66zny/pXqo2MBFovDQxvXbLKO4W1ISoOld0dKLXlNwKL53Udtj5djBpxRtjjd6Wxa6tr31O8uX+2V5RYHipvL1xhKNTn4d+CjfZY9sx43la6V/Ops/7qi5z000jYAeu+ER5i1Ew2vpZTIK0X386/r9ghoiPitsUHtrq10uJuV8v3Yg4tqaGfz9w4PbLrU4bYoNpX7bUQS5s394cNsd3VIUHNa01VCyqCJ1c4+dztpZEdH3O4YJmmEoOhQuZkK+zobEmtXnPW1NVO0AKZr7fH1gxY4Xz3tac1fSut0XHf7ZqWZGS9BE/qaz+abnJPvLYpfXZNHiXvv1fhtF0Vdt9vm4RFOoelr71owDfb+n8d2W8HLU5e9WEU1FL5H2vrL2cn6TXS1e723vphi77W3v3t8/PLhpL5Yfo1dEGrGNchvLW0ostDxbFc8H9jbuReddG6t7wGXXzXX+GTZ058uX2re6rlsMoB5vWIhoYkbva5nh2sR0Nt9a23d6k0JEk2R4a591YBNRbN6J+/wmL8qrPfjfD7nHe2la+n5P47t9W8rOHtRl//BgK16qLrpGPzR9E7J+6P3Dg6tSvdnSDcAZig4AAABAJzSSBAAAADqh6AAAAAB0QtEBAAAA6ISiAwAAANAJRQcAAACgE4oOAAAAQCcUHQAAAIBOKDoAAAAAnVB0AAAAADqh6AAAAAB0QtEBAAAA6ISiAwAAANAJRQcAAACgE4oOAAAAQCcUHQAAAIBOKDoAAAAAnVB0AAAAADqh6AAAAAB0QtEBAAAA6ISiAwAAANAJRQcAAACgE4oOAAAAQCcUHQAAAIBOKDoAAAAAnVB0AAAAADqh6AAAAAB0QtEBAAAA6ISiAwAAANAJRQcAAACgE4oOAAAAQCcUHQAAAIBOKDoAAAAAnVB0AAAAADqh6AAAAAB0QtEBAAAA6ISiAwAAANAJRQcAAACgE4oOAAAAQCcUHQAAAIBOKDoAAAAAnVB0AAAAADqh6AAAAAB0QtEBAAAA6ISiAwAAANAJRQcAAACgE4oOAAAAQCcUHQAAAIBOKDoAAAAAnVB0AAAAADqh6AAAAAB0QtEBAAAA6ISiAwAAANAJRQcAAACgE4oOAAAAQCcUHQAAAIBOKDoAAAAAnVB0AAAAADqh6AAAAAB0QtEBAAAA6ISiAwAAANAJRQcAAACgE4oOAAAAQCcUHQAAAIBOKDoAAAAAnVB0AAAAADqh6AAAAAB0QtEBAAAA6ISiAwAAANAJRQcAAACgE4oOAAAAQCcUHQAAAIBOKDoAAAAAnVB0AAAAADqh6AAAAAB0QtEBAAAA6ISiAwAAANAJRQcAAACgE4oOAAAAQCcUHQAAAIBOKDoAAAAAnVB0AAAAADqh6AAAAAB0QtEBAAAA6ISiAwAAANAJRQcAAACgE3e+fPnimwUAAAAAAAAAUrC6AgAAAAAAAABIQ9ABAAAAAAAAAEhD0AEAAAAAAAAASEPQAQAAAAAAAABIQ9ABAAAAAAAAAEhD0AEAAAAAAAAASEPQAQAAAAAAAABIQ9ABAAAAAAAAAEhD0AEAAAAAAAAASEPQAQAAAAAAAABIQ9ABAAAAAAAAAEhD0AEAAAAAAAAASEPQAQAAAAAAAABIQ9ABAAAAAAAAAEhD0AEAAAAAAAAASEPQAQAAAAAAAABIQ9ABAAAAAAAAAEhD0AEAAAAAAAAASEPQAQAAAAAAAABIQ9ABAAAAAAAAAEhD0AEAAAAAAAAASEPQAQAAAAAAAABIQ9ABAAAAAAAAAEhD0AEAAAAAAAAASEPQAQAAAAAAAABIQ9ABAAAAAAAAAEhD0AEAAAAAAAAASEPQAQAAAAAAAABIQ9ABAAAAAAAAAEhD0AEAAAAAAAAASEPQAQAAAAAAAABIQ9ABAAAAAAAAAEhD0AEAAAAAAAAASEPQAQAAAAAAAABIQ9ABAAAAAAAAAEhD0AEAAAAAAAAASEPQAQAAAAAAAABIQ9ABAAAAAAAAAEhD0AEAAAAAAAAASEPQAQAAAAAAAABIQ9ABAAAAAAAAAEhD0AEAAAAAAAAASEPQAQAAAAAAAABIQ9ABAAAAAAAAAEhD0AEAAAAAAAAASEPQAQAAAAAAAABIQ9ABAAAAAAAAAEhD0AEAAAAAAAAASEPQAQAAAAAAAABIQ9ABAAAAAAAAAEhD0AEAAAAAAAAASEPQAQAAAAAAAABIQ9ABAAAAAAAAAEhD0AEAAAAAAAAASEPQAQAAAAAAAABIQ9ABAAAAAAAAAEhD0AEAAAAAAAAASEPQAQAAAAAAAABIQ9ABAAAAAAAAAEhD0AEAAAAAAAAASEPQAQAAAAAAAABIQ9ABAAAAAAAAAEhD0AEAAAAAAAAASEPQAQAAAAAAAABIQ9ABAAAAAAAAAEhD0AEAAAAAAAAASEPQAQAAAAAAAABIQ9ABAAAAAAAAAEhD0AEAAAAAAAAASEPQAQAAAAAAAABIQ9ABAAAAAAAAAEhD0AEAAAAAAAAASEPQAQAAAAAAAABIQ9ABAAAAAAAAAEhD0AEAAAAAAAAASEPQAQAAAAAAAABIQ9ABAAAAAAAAAEhD0AEAAAAAAAAASEPQAQAAAAAAAABIQ9ABAAAAAAAAAEhD0AEAAAAAAAAASEPQAQAAAAAAAABIQ9ABAAAAAAAAAEhD0AEAAAAAAAAASEPQAQAAAAAAAABIQ9ABAAAAAAAAAEjj/5wqAACAm5vO5vcmk8nOZDK5Hz/f3fJrPJpMJh+bn+Pl4r1TAQAAAACXu/PlyxdfEQAAwBWms/nzyWTyeDKZ/NDTd/VuMpk8P14uPjs3AAAAAPAPQQcAAIBzTGfzu5PJ5O1kMnlQwPdz2oQsdHwAAAAAAEEHAACAf5nO5k8nk8nLgr+VZquL+8fLxV8FHAsAAAAA9E7QAQAA4O+AQ9O94VGi7+I0Ag+fCjgWAAAAAOiNoAMAADBq09n88WQyeZP4Ozg6Xi62CjgOAAAAAOiFoAMAADBa09m86YbwUyWff368XHws4DgAAAAAoFOCDgAAwOhMZ/O7k8nk82Qy+a6yz/7ieLl4XsBxAAAAAEBnBB0AAIBRiZDDnxV/ZmEHAAAAAKr2P6cXAAAYmU+Vf9xfp7P54wKOAwAAAAA6IegAAACMxnQ2fzWZTH4Ywed9E50rAAAAAKA6gg4AAMAoxMT/LyM627avAAAAAKBKgg4AAMBYPB3ZmbZ9BQAAAABVEnQAAADG4v7IzvR309l8q4DjAAAAAIBWCToAAADU665zCwAAAEBtBB0AAAAAAAAAgDQEHQAAgLH4PMIz/amAYwAAAACAVgk6AAAAY/F+ZGf66Hi5+KuA4wAAAACAVgk6AAAAo3C8XDRBh9MRne1XBRwDAAAAALRO0AEAABiTpyP5rCfHy8XbAo4DAAAAAFon6AAAAIxGTP6/G8HnvV/AMQAAAABAJwQdAACAUTleLh5PJpNlxZ95frxcfC7gOAAAAACgE3e+fPnimwUAAEZnOpu/n0wmDyr73D8KOQAAAABQO0EHAABgtKaz+c5kMvmtgs9/dLxcbBVwHAAAAADQOUEHAABg9Kaz+afJZPJT0u+h2ariYwHHAQAAAAC9EHQAAAD4O+xwdzKZfEwUeHhyvFy8LeA4AAAAAKBXgg4AAABnTGfzJkDwqMDv5XQymdw/Xi4+FXAsAAAAADAIQQcAAIALTGfze5PJ5NVkMnkw4HfUhBseHy8X750nAAAAABB0AAAAuLbpbH5/Mpk87Tj4cDKZTJqOEq+Ol4u/nB0AAAAA+DdBBwAAgA1MZ/O7zXYSk8lkK/6z+b9/uuRPbDo0fIqfz5PJ5KOtKAAAAADg+gQdAAAAAAAAAIA0/udUAQAAAAAAAABZCDoAAAAAAAAAAGkIOgAAAAAAAAAAaQg6AAAAAAAAAABpCDoAAAAAAAAAAGkIOgAAAAAAAAAAaQg6AAAAAAAAAABpCDoAAAAAAAAAAGn8n1MFZZvO5vcmk8lW/NyLn+a/f9fRgS8nk8lfk8nk02Qy+Rw/n46Xi79cKuMwnc3vxjV2fzKZ3F279n7o4As4PXOtfWz+83i5+Dz28wAA5BDj9Xtnxk7Nf/7U4Qc4O4b6FGOoTy4bLjKdzbfW3idX1+msoy/sZP3ajHfKj04OJejxd+Eo6isf134P3Kcpxv7hwZBjmH/VHve2dz0jAIAbu/PlyxffGgwoXrB34qWiqyJTV07ipaR5GfnohT2HuObux3WX5Zo7XV1nk8nkvSAEfYnfl7M/XQXNJmvF0Meuc4DhRYjh/tpPF8HPrq3GUe9jzO75UqnpbL6zdq12OUnVppO1a/P9WM8d7Yp79+r34UGCr/co7tNv1VVoS4QYso9hJmu/Hx/3tnc9JwCAfxF0gJ7Ei/bTeNnO+nJxU6uilZf1AYzommteel9FAELnkQtMZ/Pnk8nk1yIP7mIvjpeL513+BdHBZCd+SiqCzm+76nE6m7+dTCaP2j+kXn3v97lf09n88WQyeZP8Y9z692by93fwMWHo9Kvj5eJOAYeR2nQ2byYAHiefCLiN07XxupWUSUSgYaeC5/1lXJtXiPvWouiD/K/l8XJxv80/MMYwj7M+w6+wqqm8ElLjIvuHBztr77RdhvJL9C0ktLe9W3XdMRZh/F7AodzG6+Pl4mm+w+7XdDb/XPh7yEOh1MtFLf6Pko/xEh+Ol4udYo8OLiHoAB2IibOn8bI9pkLpdQlAtGztmns6whfb8zRbsDxXFP2HoMO/JrEyTApsOmGbPexwerxc3C3gOEYh6UTJWU+Ol4u3m/wBgg7jUfmkWFuWMVbf6PeKzSUbv3TtNALOb036jjPoEBN9T0f++3Cy9nsgGDwi+4cHd+N58FSt8UofIvxQ1aRs8nC6SfJLJKrhWJRyiQRhlYucHC8X98o8NLiaoAO0wCRzK07XVioIP1whrrlmAviXog+0HKMPPowt6FDBfXmjoMMk+aRt8KLVg+QrDlY2DjlMBB2qFdf4c5PEG1uN1Z+bYO5WTF4/F8S5tnfNeG+MRfcxBB3cw69lFQB6ZfKpLtGp4annQWua58Xzve3d1OOY5IsaTJKfI1mA5eh4udgq4DiKk/x380fveGQm6AC3FCsJXnnh6NRJFFOtJPtn4Ptccr8VL8ZWCBpD0CE+Yy2Bs42DDpPcafKV1tsb849KQg6tdX4RdKiDSbFevY6xuoL1BgSYW3USoYdRrBitNegQ772vLCK5taP4PdDdMJn9wwM1n341XR+eZgw+JH7PN0l+RtJ3cluRnKHbCgxL0AFuIMINzaT7T763QYxuVX7Syelsmpfbx7UX6WsMOsQL4dtKA2etBB0mdYQd3h0vF48LOI6qxMTa5+STCK1eG4IOeZkUK8KoJpg3VfkYphSn8e74qtYPWFPQYTqbNxMmL4c5pKqdxLuu0EOB9g8PPAvK8nVBzN72bvG1oXiX+7OAQ7kN7/drEtdrWqtZZZd8AUmrWwbDUAQd4AoxeHxlVVhxqi1cRZHnuWL9IKpNJdcSdBhR4KzNoEMNE9pevlomAPNfgg65CIMWrfoJ5tuI53EzhnmQ7+jTa67JndoK8tmDDtPZfCd+J7z39uMkfg9sFTqg2I7CdV++ZXR7KPb3JekzYKWVrQezS77VQTO2uqez29fz+FfSe/qH4+Vip4DjgI0JOsAFYjLto5ePFE5jBVnaQbJuIcWprhiaOegQEwPvR7bSpdV0fCVbFCiGtCTzhH7oZEsTQYfyCTekNPrQg5Xqxammm1vSSa6j+E/vvcN6FzWU0U9Q9WH/8MBiltya+9bjEkMPyccYPx4vF+m2DWlLhP1+S/4xRj9RPp3N3ycNMZ8cLxf3CjgOaIWgA5yRfE+lMfs548oEhc8Uqmirl3Ry6GjERdDW2wBWEnawd+CGkq8amXT5Qi7oUCYrfqsymtXEEdL8aDK3aE0I537m6zH5al7KkP73oFQ6N1SrqVHs7G3vFjNBn/j9brQTrcm3Hjnr2VgDzYJGUA5BBwgCDmk1BdOtTCsRbIeS1lEUgVKuerEKNp1O9juspCBuL8hbms7mzbPnl5QH/7dOi2GCDuXQ4n8UqtyfWVfAtFJ2jRJ0oGW6p21o//DgXnQiFHIbh9d727tFbH2aeFvCKseDV5nO5p8qu0+kXHy4iRjz/5708D3vqY6gA6MXK1w/KUal9Pp4uSjipeI6rOyqRsrAg6BDOp1N5lcS7JM+v6EKOgh1vgeooMPwTBKP0lF0eUh9T3ftViNV4VfQgY6YALmh2JpCp87x+toZZcitLZJ3bxzVPaeCxQfnOT1eLu6Wd1jdiPr+56Tj/lRzKXBdgg6MWgXtm8csTftyAYdqpQo8CDqk02nXggrCDp1PetdEuOV6BB2Go7MaWdunCzhUK8Wki6ADHdNF7RL7hwd3o3tDyrEjnXm2t707SBv/2O7tt6SndhQLGZKfo6t8OF4udso+xHYkrhssj5eL+wUcB7Tuf75SxqhJuk5n87+EHFJqiqDfJwo5vI1914Qc6tOc0z/jHEMqUbx/kfisfRfdmLhCTIIIOVCkJuAwnc2/CDkQ9/Xfm3e0CA8UrQkyx/vk70IOVXqT5VqEDi3i92CUe+hfZP/wYGv/8OBz1HmEHDjr5f7hwZf9w4Pe60RRJ836jl99qCoWwdUacmg8iC6SVYuOHBnv/adCDtRM0IHRiYfuHwpSKTXJw7sZVvCuFe6Faer3qDnXkcyGNI6Xi6bLx7vEZ+yHSNJzgShMZ1/pORdyqI+AA5coPvAwnc3fxwSX98m6ra7FTzE5AWP9Pfgj7nujFgGHVcDth7F/H1zpUQQePkX3j17EO/6HhKfnhxEsIhpD7eJlzSHRqPtm3XZEeJeqCTowKpG6s29eTs8yJA9jdddnhftR+k0hlGyOl4vHycMOM4XX88W9KHvXiydaJtelKXzFKnjjJK5S3CRzU9yMgM6DAg6H/qy6uD33nTNiDyLcP7rVoGcCDgJu3NTXZ0gTeOjrm4vtA04SnqlHtXYEiPmIsXT6rbI+k7wjxxOLR6idoAOjEcnQrKm7sWtaVg+yx91NxID8T+n+UVsVQh+P/Ysgjwg7LBOfsge2kDnXp+TF2BT7o3M9EQT9ZJKAWyhiq7C4fmtuN8zVfo1OI0LNjNliLCHjZhW+gAMt+qnnLS2yhpKq6wiQvAvAbdTanSPrIpJ36iqMgaADoxDJSVsI5HN0vFzcKT11uFa81y2ElTda6pNJdMzJuOpj5ZGVlv+IzkKZQ3cvvIzXI343/xzRKia68SjG271qVi9HFwfXL5OY7BRqZuwe1B76idX3tiiiC6stLTp9jkQd9WHSM1hNLS15F4BNPKpprBTBjYz1laNY2ATVE3SgevFg1ckhn2aSo/gUb7RuVLznPLMoAN3z7ZDB8XJxL3nY4VcTD1+fSx+Thxzexd6yJBdB0GYl5K/OJRtqtlj6vu93gwjLL5w8zvHG1lmM3Cr0U9VWFvuHB0+bSWj1HXrwpukY0myN0tVfdbxcNM+p1wlP5ncVPWPHvADqTQ310KgxZVw8e5q4swvc2J0vX7741qhWJCf/dIbTmWfYkztWKI6peH8Se6015+bTbTttRDFk9TNr/zCL9DBeMgczwus1u0Hug/Hc/Jx89VKKZ0gXYqVB5g5W74ZccRAhkZTPpaYDVgGH8Y1nDi15NtT2dRV0xrmpZYzxP972GRrF7K0Y4++M5Ptrisj3jpeLv4b4y+O9ShiHoaXfbiwmmz/q4MBAPuxt7+509VcnfscZbBzYhgjMjn3h5UksqEkpxrZ/JD38n4+Xi6zbbcCNCTpQtUiAPqj4M57Gy9j7KCz1P/4AACAASURBVEq1ssXD2kT0Vs/f36CFopsYwbX1YTKZvOpzsjCuu6xJ2et4MeQqZZNO6Qw2WZ/8ZW7lx9K3PWpbBb/jy9hCZTCCDu2I7QWshOS2mveBnYGfgZ8qnuxqvt+m8P62z+dkrIZ7XnH4YZBxh6ADBRn0XXcT+4cH2YPC1OPnve3dTiYmo8taxrFNysna6Wy+M9ItK84z6GKGTSQOPqcPIMJNCTpQrels3kzS/17Z52smn58OOXmzNhm90/Ig+cPxctFZgrlNmSdCLrGMa6uYF4i41rLug3aRwQb4gg7pDNqVoJKww/cZgnNtiAmkN4k/QhErPQQdNjOCCeIunEQXnfNsjey7PGqC1kPetyueNH4RAeYinonRPepphePS3sdugg6dae5H5/2+3BXku1Sq1df7hwfGLZSok+4Oid/v0yyIW9Fd+lzpJt4Td8tMGyyBTQg6UK0K2jevvIsJ6GIHdZFUfbrB5ECaAU9lbWyXsWIuQweNnQg91FCEGGTQKejQuuXaH3hRUfte/KzcZNJq8O0XKiienx4vF3cLOI5OVbBapJh2loIOt2fV0r+crm311VrHtbMi1L0KIGeeeCuiGFfhhHGKCceYDHhV0WrqXsdvgg430vm9OSYSV1u31Nz98TIpajv7hwdN/eplAYcC5/k6ub+3vdtqrS5xOH7wzn83obvdhdJ03ZzO5lmfEUfHy8VWAccBvRN0oFrT2Tz7xZ2mw8FZUex+dY1AQDN430o00Kkh5NB854+Pl4v3BRzLjUUx9GMFLw29F/UFHa6tlwmqs6IwurM2YTV40GGiU0DxKuheVdQKHUGH2xn58+VkbRuAUq7je7FFQNvd19pWzGRYRZPFg3fF2ERFwebexnCCDhdaxn25pHvM8wq7Ql6k6Mms/cODGjt0UqeHe9u7rdbuprN5M279JeG3lWJ7nMTfbx9STMInr7GMpqspnCXoQJUqeOGvZi+lKLa+OmdFg0Ruv06j8Jlub7vzVBJ46DXsIOhwruImqEqUOM2+kup5c12VbC9SVCFc0OHmRvhsaZ4bzzON09e2CXhawARycePRSrY7rKpFbSWT973sKS7o8M27uDdnWin6vOItE4oMGu8fHtyN7aJsVUEmr/e2d5+2ebyJ33kelrxoS4e7a3l9vFy0ej23bTqb/5X0OVHEYikYiqADVUo+uKh2L6UotL6PVdLFJ3FXprP5+8StJ6sKOJwVxemPiYsVvbUVFnT4ahlFUIP/G6rg+qltEqiGQm1xq/0EHW5mRM+Vo+iGVUtY9H6smu+zS1mRnQYqCIyl7QB4HRXcYzpfVTfioMNRbO+Zfkxf0ZarZxU19t4/PBAKakdTX1ofD533O9jUaFbbB96raOvXIS33tndbDe4nnswtcsV6Je/nfSk2sJK4HpBiyzrokqADVUpeFJHAK0jyaylFa7c2JA+j9PI7P+Kgw2h+D7pWQSG2mmuhgq2UihzrCDpc3wieKU0hf6f2MXkPWwUUHTJLfC9Ntf3fJpJPHHS+qn1kQYeqQmdnVbBd3Hl66Wxylf3DA6usr+fDavvGve3dzs9bdNi4H1tt3ReIuNLJ3vZua8+UxB2titz+IPN75ECKC6wkfr+tdsEs3ISgA1VKXnyVwitE4s4gRe153pfkxaE+VnyNKejgPtqR5KGiSQ1bQ1VQRCn2HAg6XE+lkzErRXYe6FpMJr9t8f5e/L028fOs6i4OF0l8f+60+DyCoMNphBuKbVXetsr2dx98QnL/8KDmMcttncQz/9Xe9m6R450Ipzw1cfwfzbnbauu8JR7TF7X9ge6pt1JUYCVx/b/IraJgCIIOVKmCQUZx7ZzHJgq+fyb82FXuRX9diYt9nRetR/Dy9SEKoaOanBqCifbhVNBVo+jvXtDhahW0+r+IlTBhg/tMmu3SEhf204f1NpH4GdhZi+aKgw7L6KozynF9ZS3QB2tRLuTwTTM5/nxvezft82P/8KAZfz6vdJuXmzrd296929Yf5tm6mRFvIdWGIgIriev/k1K3coEhCDpQpUoGGqMuZA0t6SqvUYccVhIncTv9na846OBeOQBbJ/SvghV+xW8dIuhwtcT7+V5klB0cruMG95xU32HiYqbxTt53tNPj5aK1Sal1FU6wCJ2tqaCT2mSoVbtCDl8XATzd296tcgHV/uHB0wg+1DQmvYm2t7FoQqo/9XLk7Rp0kWBlobShDB5YSXz92/oc1gg6UK3pbF7Lxa2o1bOkE+XaVa1JOiHYWRF0Ul/QIc2q0ZpVMOGZpntSBb+/KSYuBB0uV0FHkbOK2Du8dJec95QTkkknDm3JtSbp+KOTVYsVBR0EHC5QybO318mY/cODsa6wboKHO7WGGy6yf3gw1m0Dlnvbu60sdEo8YT9oHbSCTpclGHTr5cTPWO8GcMb/fCFUbFnJR3vThDaa1bMxAU/3Mg4WRt/JYV0UEk/KOaJr+S4CGlzsNCam7pqcKsK9OCdZfYqiTtGixbqQA4OKMWgtIYemA9Ydz5Hrid/f79fu90/i+8sYcthJGHL4oJD5HxmfKb/E1j/821G0XTZOuEB8Nx+KPLjr6+38xhYHYws5PNvb3r2zt727NbaQQ2Nve7fZlqMJ/P6csAa0idn+4UEri+JikjljTfGHmKjuXSxEEHLYXBOuGaSjQ9RZMr7fejeAcwg6ULPabvpNi/DfIvTQ/HwUfGjfdDZ/mrAd+4ssq5J7lvEe8EuGideBvBBwKEsURHpvRdui5qW66OspVmpmbru7NHlRjVq6iz2zzdfNNff7eAbfSd5prujtcy7gHnpGtDg+KuqgrkdR+t+aLhdbtg662vFysZN8ArfPiaQxvSs+iYCDe8vfgYdPsZ3D90mfEbfxKLZp2VjUWZ6k+vR/exQT1r2Jd/QxdhHpyixq8b2J8GnGOstJjAmAMwQdqFbiAsh1zc4EH/5qkqwx4OL20hVAS9/zfCiJE669DvCTmLvOyxQhq58Tf4QfYk/G4sTLd+YVaScmlOsQK5Zq2Ht2bvXLeEVAPNv+u+9MAl9o0P2cb+mBrg7/4tq+mdTviH3UqfYPD96PZK/8VcDBFrfn2Nve/avpbjGiwMOb6GSysQizvhv249zKm56frxnHIKV7OZ3N+1xE09t2Si1TX4EL/J8vhso1qc7fR3KSv4ukfJNmXf/fj2IV3nur/i8XKeB0L8ZN0KWAw6A9T5OuOGSkmtUf09l8nnhS/qdmz/aSkvHR2SXzirRB90uldTWsWOp1f3CKlHGSsHmvq2XLGP72VKiZ22gW8kxn82XiVun3u5xYilXt2bYmuql3e9u7uvxcUxN4aLoP7h8ebI2gLvwxtpXcWNONL4JJ2TrdtvYdXKapG4wkUDWE5hx23uE2tjvJdn03HprXgYvp6EDVovXWi5Gf5Wbl0svJZPLHWveH5qeZmHpqVcm/eGmkBN/ZloZsYgIxY6vLlQdD7e95gc+JCyinybc0YU10c8hOyGHkYoWYfZQpgfdNNpH5mdzZKtT9w4O7ybd6u0oztv5RyOF2YkuLO82+9hmP/5p+2D88aLNrWcZ3uR+6fp+P7RVqD1QN6bsIknQmFjhmDBG/iM7lwAUEHahetDvP2Hqra1cFIDpPUZYkAh8KoJRCEYN0otXls8Rn7lEJk7rT2TxzyKFhv+26ZH8ePRNyYDKZCJBSiu9sNcltJX+edVlrqXkLhw9727t397Z3reLd0N72bjMWmHf6lwzrlxa3sPgr6Xf1KCayWxeh2ZfDfrxReBCBktbFOcwYivtgK1+4mqADo9C03hJ2uLZVAOLPMwGIt5WvMjexTEmkxEkp9r/P3Enp166KI9cxnc0/Jm2juPKjdor1SNq2dt2HuCeBcT4lEXRgE2lXpXcR8tk/PLhf8bvzs5icpyV727vNu9b30SWjRq2NeyNYlXERw5uOOhcLTvfnZYQS2pbxHJ6UtMUqlEzQgdGIsMPYt7HYRNPa6bcz4YePQ04ItUzBiaJY7UVWFXRSejPE71+02szcWWgu5FCd7M8h++Cz6tqWObBDfYzx2cQn396/1LrKdb63vSus2YG97d2/mi4ZzQRidR9uMnmwf3jQ2gRxBIYzvte3ep+M7RQyd1zMqNVtGhKfQ2NGuCZBB0YlJl9+dtZbM4sJofXww/ukE7S2raA0BrSkFeHCzPugLjpaCXKu2DIj416RK09sD1ClzKtHXgveEIynKI33TjaRebzV6v04ujnU+Ps0j84DdGhve/depWGHVsM/8V6f7Xv6Lia2NxbbKGTuGpO1e8kPsRBkY1FryXgOn3ifhesTdGB0jpeLT8fLxZ3kEzAlexATRKvgw+fSuz5YOU+heptkhS5Ei71l4i/3jz7CDvGM/LXrv6dDzQt4zXsjj9lPiT+7VZCsGE9RHO+f0IoaOzc9EXLoT4QdatvGounq0PbYJ+Mz60GEFG4ttk94OezH2MiL5OPgR5vOJ8R4K2Ot5bUaC9yMoAOjFRMwNe/NVoofznR9+FhgYeduAccAZynMk97xcnE/+UqZT9PZvLNnxHQ2b8Yib7r683vwwgt4nZJPwi2tfmGNCWVK5P2TW9FB62/7hwd3k6+yPs/rve1d4+r+tbbVQ0FaXWwW4+qHCb+HlxFWuK3M99vmfej58XLxV9Jzt/LmtotPoo6z6OSoutWcO1swwg0JOjBqzQP/eLm4G9tZCDz0Y7bW8eGvTRO2LanxxQagCMfLReaVMt91tRdyFF1+6+LP7sm72BKMOmWeHDYJxDrBUUrk/ZMxanNsUXTX0Fs42dveNbE1gL3t3WYS/1llH6v134/j5eJ9dAjI5lbvBbH1xXcJP+8kai/ftiCMc/d62EPayG3f7TK+E57GYiHghgQd4J/tLO5Gh4cj30lvvouEbUmhByiF/XupSeawQ7M/ZKsvybEq4fc2/8yefYj9WqFEgg6s+8G3AVCdnco+kHH1gPa2d19VVgv+Yf/woPVAXYTcs20D/V2EFq4tatOZO8bsRCeHb6JDQNZrvKnH3KjbzXQ2f5V0G0ZBWLglQQdYEx0eto6XiztJk6qZrYcePm/YXuymDCQAOhQv2pnvtbObvlxfJFoodtIloifL2P4LAACGUNOigA9727tCmsOrrVNdJ+9r8R6YbWvKB9PZ/FrnN2rRL7s/pM68uGSLo8ydAh5NZ/NrBcJie9Bfuj+k1j2x/SLcnqADXCD2sroTXR6yJVaza1Ze/R6hhz5eNuyRCtCxeGn7OfH3/ChWBmzqU+I2mCdaKQIAMJT9w4PaxqJtvF+wob3t3fcJJ/Av0+Uig4y/g79OZ/PrHHfm0NHRZVtLxuKTh/0eUqveRGfMC8X/P+P2oM22oK0srIGxEnSAK0SXh5210EPmfa0y+jUCD10+8CUmKdHSWaE2zVZRk8lknvhj/bLJNkuxBUbWNurNfpH2ugcAYEg1BR1OdHMoSk0TjZ29t8UChowT5u+ju+K5YouLrAsSJte5Nx4vF++Tz2tcdb/MeD89si0obE7QAW4gQg9Pm9BDBB/mlSV+S/aow8CDoANAT6KV4pPE3/fL67ZNXBfPr6xtdk+7LJYBwMiY2AQa730LRanp3vxTl3940gnz7y46x7GY4UH/h9Sah9Gx4UrNvEYzuZ70c/5wUZfNqLdkW1RyWll4DwYj6AAbaCZrmtWNa8GHJ4IPnVsFHuwPTu0UQKlWtOV7lvjzvblm68uv4qX7UbeH1Kmt6xZOqEbm861YxDrvZgB1qek5/6mAYyDU1l1j//Cg0216Y8I8WyfSn85OlE9n82abj5fDHdLGXkfw5CYy30d/OTsnEAtRMtZb7quzQDsEHaBFzcTNmeBD0/Hhne+4E79NZ/O2Xgq9XFIinUao2vFy0RQYXiT+jIur9oic/P3S/Tx5yOHnaE/KuGQeGwk6sM79i+JEdysAz6jy1LSF6FbXf8HxcnE/VqVncnaiPPMz+SgCJzcSk+sZtx9Z+W21DUnUZN4UcVQ38yS2dgVaIOgAHYqOD49XwYcIPzQDiQ++91b8FN0dNh28S09SIm0sqd7xcvE8eSDw0xX7fDYrC37t95BaNffyPU7JJ+Fm1wkhMRomlClNTZNoANB5oKIDXyfKp7P5+9jSIqtbB7yTbj+ybjXGz1iveBddToGW/J8vEvoVA4l/TWDGRH2TwNxJPsAayu/T2fzJbQcJTTF/Optn+8zLSE4DpNYEAiMskHFPzO/ixfo/k6qxtUXGlQUrT6w4Hb1mMm6W9Et4Gj+QcbXsrd9rAAD61HT/a2qyCd99/yzgGDbxcNNtD5puEFG3+GnwT3NzXxc/Zjvo6MLxuIDjgKro6AAFaFZLRueHu2udH75vily6P1zbm2gPflvZVtZknXgA+I/j5WIn8QrHH85upRSryRfDHdLGnplkI/lK+F90dSBkXOUlzAwApBHvjpm7A2TzOhZStsG4s1++b+iAoAMUqkllNgPFZvLnzNYXPzYTEE0C0Ln7j1+jTfhtpCvmb/BZAYoTXWpOkp6ZZjXB1+dIdKf4Y/hDurUXx8vFq6THTruyd/RwHTOJ7XeyPVseFXAMAHRPKLM81Swq2tve7XUs33QHsD1TL47iu25FdIV4WPdXVoz5pl04gPMJOkAyTUuwZgLieLnYOhOA+DnSs6cjP6dvYiuQm8q4cnWTDhYAxTleLu4lfo7NprP526Rt0leavSI9W/gqti7JHKx9MJ3NbV/BJOM437ULcKGatla7Te2KjuwfHlhpvaFYvDD2unTXWr9OozuEjhzdemZrUOiOoANUIra/eHpm+4um+8OLxCtkb+vG7buaAEnC5PEPujoAFcocdmhW4X5XwHHcxgd7RXKO7FuYvIx9Zxm3tlr79unl2E8awAjsOMlFqWnMOGR909i7Ow+76ggQXSJ0j+7GO10zoVuCDlCx6P7wvFkhuxZ+mI+glVgTALjNitSMxfw30SYdoArx4m51U7+WzVZZY/rAXE8lBZnFdDbXGnrEYvuKdO8/0SUIgH+raUXsD7oIFKWm96HBugzGuOvJUH9/xV5H54UuuR+178SCEuieoAOMTNMmqWkldib4UGPHh19v+i8cLxdvk64izrhKDeBC0WXnZ99QL06ixShc5FkF38wfOju0J2lwJGNo55HubQD/tre9W1vrb1sVFWD/8KAJOfxU0Uca9Pck6qvvhjyGyhxFx4VOxaKTh2P/sltmEQ/0QNABRi6CD/fWQg/V7KV2y71tM+5NPrPiC6hNrASZO7GdOm3GABV/PloQXR1qCMUubjk2JDRdxKaz+ecIjnyZzuafprN5iuJdrIDL2I73jZAOwH/U1KX0ga4ORchYC7zM4IGgWMVuK4R29HaPiDHz677+vsrNu9pqBPg3QQfgmwg9NNsgfF/JYPTGbecSF/MfCTsAtWmeS9pedqYJNgo5cF21BAReTmfz2laC9iJCIn82bbbX/r5m5ePvEXp4m2A7tayTGIssgRKAntRW+1DLGdD+4cHTyro5LPe2dwfbuuKM+zUtqBvIw74ny6N7hJDKZp5FPQvogaAD8B/NAOp4udiqoF3V7Jb/XtZifhN2sI0FUJVoe/nCWW3dltUFXFes7Kml/ewsJuatnryGZoJ9Ops394qXV/zTj5ogRPPPlrrdQlzHHwo4lNv43TUL8Le97d3aggE/7B8eCDsMYP/w4N41xjjZFFMXjPdN45fbex3j1yE4b7f3IRZSAj0RdAAuFIOp1G3Db1MQTF7Mf9C0FE6wog7g2o6Xi+fCDq36+Xi5KGWVD0lE+9katrBYWcTWC8ZM51gLOPw+mUy+u8G/+l1st1Dq1hZFhjCuqblma2utDXBbtQQwVx7tHx5kfkals3940IwBP9X2ufa2d4uaYI0tKXVpvLmj6KwwiAipZF8AOYST4+Xixh2mgc0IOsCapnCk/f+/RZul2l4grxTF/Kzt1X6IFXUGVhuIFsxfVu2Y034QqESEHUb3POrAPIpNcBu1rez5KcZMAg9hg4DDeYrb2iKKtpmL7b8KNW+m+e7id341zjexCDnVuFr2zf7hgVXU/fnUwlinNEW+L0eXRu/yNzP4vSAWAr4e+jiScQ+HAQg6QGiKHU3hKNr/f4kCkr1Q/zbWVZ/ZBye/Kdzf3CrgEC2YVx4JPMDwIoS2dCpu7Yl9ItlEdAKpcWXPKvAw2vF/BL6/tBRwOE8xW1tUUGxfhZqzbrc3iLUQz59n9mJ/I/AA+ext735KvB3RZRb7hwcWrXRs//DgczxPa1Ns56cKu8N16WEp20xGV4mjAg4lg4c6Z8IwBB0YvSh4fDlT7JjEgHe1Aun9yCeLR/nZK2mvtircm6C/xHQ2v7da2XUm4HCWwAMM7Hi5uC/scCvPYnIPNhIre55V+i2uj/+r31e12eItwh1fIvDdh7NbW9wb4rNHsT170fZlfI/C+ZdoAgzXDPEIPEA+tW7n89v+4YGtijqwf3hwb//w4K9KQw6v97Z3S59kNWa52ut43yqJ8NXVXhR43mA0BB0Ytdjj9PdrfAcPYrJ4FXoYpCA3hPisv4zl854Vk0I17Atvgv4czUq4KHz+cU7Y6TK+TxhQhB2sBrm+5qW7+klb+hPXUw3jo8v8stba/nktoecz4YbFwIX+Zuz1x1DBkuPlYquSZ8nv0SlDq9wQ21N8jOv8zQ3/dYEHSCK6OtTaDv/X/cMDndhaFJ0y/qhwu4qV4sMx0aVgXsChlOooOigUJboUZF8I2KUPsdUqMJA7X7588d0zOlGo/NRCYa8pjD2vdYVkrA66ThCkWMfLxZ2Wvou3V6z0z6ZZwbYzxpZa09m8ebl92/LL7btYGVisCHb1tVqzbXPt9jkrnuWfKy5UtaX4+1MpmkmxyWQyy3jsbY13bir5s+W2Uo3/I7T8PNE49nQymTzua0VUpc+SF2Mstsa5fN5BSP9Jqb/vEW5ZFHAotzHK67QNEeDJaBlh5dbtHx7UXNxunov3I9TBLUVoJOU4/5qe7G3vpqlNx/ZbLws4lNJ8X8qWFeepsDbehpPj5WI0C2KhVIIOjE7HxYCm8NmsRnpb8sDkOioZvLT6Il3xgO51iYnhNsVL1PMeitjFTigKOlAjYYcrNSsLtJm8JkGH24lVzzddMV2TZgLifYz/B31WxT2x+Z1/esNOVaXqJZhb8bPkNL6/asdQce5e9fSOVlzgQdBhnAQd/mv/8GAMY5EPe9u7xvU35Nool0nz/3iYYeuDpjNcpVu/3NaPY1xECKURdGBUoiVq39swHMXq8eLDD7Hi630lhdFJ7Efeahvcga6hPjVtH59WENS5H8GGoSasigs8CDpQq3h2/eEE/0dnxeRaCTrcXvLJti4to4vc15/j5WLj1ZjRcW31c7+icftVOg3mjiA4dxpj/PSdCCNc9XzAInsxgQdBh3ESdDjf/uHBWCZNn+1t79qS7gr7hwfNOOnjSALx3+9t76as4Zk0/ybNAjT1l38ptusXjI2gA6PQ4lYVbTqKUMHHISfwCigUdaarov+I2jSfxgqpVwlCOs11/LjACapiAg+CDtTMJOt/aJ94C4IOm4mi1ycdVuhYp1tbjKjgvowxftErB+O+8ji6lJR2bxm8uC3oME6CDhfbPzwY06Rpqq0K+jKygEPj4d72bvFdAC5i0vyro+PlYquA47g2Hf2+qr47MmQi6ED1Er/8n0ax+HP8NP+9mWz+fJOWSDFovBcrvlYrv8Yw4G+9m8O6EU+qnay1Z+59j8hYxfg42jJnKmAMHngQdKB2wg7fnB4vF3cLOZZUBB3akfl7JJ1OtraYzubNWPfBCC+HDzHOf993yDkWJtyPMf5OsvfVwQIPgg7jJOhwsf3Dg+Ze8meXf0eBvnblzLqivy2xRcWrkQVuX+xt76a/j05n8+a5/1sBhzKU7zN21R351iO6Z0JhBB2o2oiLVGPXy0pWe8P/x+lae+a/IkU/uSqcE+GFu/GzFcGce5VOkgwWeBB0YAysLPh6H76XffuhoQg6tGc6mzerW16WdExUqwk73G/7vud58h8na+P8VRB/ctX4LCbiJ2vj+9W2KzWuuO498CDoME6CDpfbPzwYa/j5a8ejzKv7byqCLe9HGrB9t7e9W9R2qZsYUefcsx6W3l3rMiPdesTCEiiQoANVMgE9ej+2vbLrMiNPsXI7vQceBB0YixEXSSZ9P/9qI+jQLuNxetBpcdg1zC31FngQdBgnQYer7R8ejH2F+El0eagu9LB/eHAvOjeMeVHbcm97t7rV5CNcrJh+64ORbj2i5gIF+p+TQm2i5dWfClKjNe97wBET1j+P/YvnRh41BaoIyQAtiqL5ixF+pz974aYkzQr7WO3yzImhZR+acE/XK+DWruHXTiA38CbG+dWstIVsYoL/yYhPXLPC+rf9w4Mv8fM2AgIpNdtS7B8efG4+S0yqCjlU6Hi52ImQzhgcZQ85TP4+Z59Hdq99ouYCZdLRgarYqmL0Bl/1rbsDt9R5hwcdHRibkd2P/Y60QEeH7sTK+Ob7/ank46R4g23PEyvWPgnTc0OnsbXKpy6+OB0dxklHh+trJshtQ3Suo+iK8H5ve7eoLe/2Dw+a7Y2aCeAdz9z/qDbksDKiDgHf17Td5EhqL4NtRQxcTdCBKmgrSqxk7aSAdFOuR26h88K9oANjlHni+gZ63xO8VoIO3ZvO5lsReDBG4qaKGAvEKn2TZtxEZ4VxQYdxEnS4mf3Dg8y/J31bxjit+fnUVQgiwgzNedkSaLi2D3vbuztJjnUj0am55q1nOt16bSjT2fxzdJOpUdOBY6vSzwZV+D+nkeyms3mT9H3pRI7WYCu7LhLHcjd54Yl+dLrKC8auKaZWHnZ4JuRAJvG8M0biJooKc8WxvNXFjWs4inF+NSs2IaO97d2P+4cHP45wH/nbmMXP1wUS+4cH6T5ApV7sbe+OJhjWhACms3mzbdgvBRxO217XGHII9yu9z57GZwMK9j8nh8xiSYvdlgAADAZJREFU8kLIYbya1TF3Sy0eNavOYoXlmPeG5GJP4voVcoAOxcqxGvf6bFZCvirgOODGjJG4hmacdKfUMFes0P8+JrNh3VG0pN4ScoAy7G3vfo579qlTQjJPxhRyWDleLp5Gh5GaHMXnqtLxcvG50nc7oVVIQEcHUrJH6uilWgW/tvJLq1uaa3fHNgzQu63KthR6p90zNVgbI9nSgpU02/FE0XMrtq17P4KtkricDg5QsNiG4e7+4UFzv37gXFG4pna0FSGdUYrujH9V9H5QfVeAZgwfnftq6Xr2pK25hxa2E/62/dM53RFv1e36gq23bR1MSjo6kFKkBK1iHKe0q+CbAV+sXpxbSTA6TeHz57h2DRihZ/HCd6+S7/1DV3t9w1CacV3zjJxMJj9aIT9KpzFOKraDw2WaZ0xTeIxx/rtyj5SOvItrVwcHSGBve3en2f7NuaJgy73t3btjDjms2SrmSDbzcCxjhKhV1NBR812i95ImqPBnLB64lvhn/7TQgFro6EBasZLxeaTPnle6dxf/eFfLxE5MdN+Na7f57z8VcFh0o5rrFrJrCgvT2Tz7/rxNin+ngOOATkSY+WuBZjqbvzK+r94yOl1VU/iNcd/j6OT2SvGwWk0453HF+2xD1fa2d1/tHx68razjG3V41lyfzuXfmneD6Wz+JHl33NcjHC/cT153OWq7lruaxzr7v8e27Otd4b51briF35vfl6sCGtPZ/Kmt4KmNoAPpRWGsuUE/FXqo0rNa9yBftbudGGTU5igKn+m6jkDtolAyP9PmL4uTDV54IZ3Yw/ZprDZ5KxhajWaC+GnGzg03sbYti20t6vK6qTfo3AD5rW1lIVh5PU2dY3Xv+xw/l1l/b9kSKLnSSWxV4flyRmyHsJX09/Qo3mlGpYKASua6y5vm9+Wi6246m7+taGsR+EbQgaqshx4mf9+8raTJ6TRWd42mxX+EOV5FMfSVQUc6VnVBEs2zZTqbP5xMJr8lOmenx8tFLVtvwI1EcHAVDN2J0IOxfT6vR1ro/WtVLI0ifTNW/GH4I+MGPsQ43+QTVGhve/fp/uHB8xF2dziNDqPNOOvj3vbuYPW3/cODrRjr3Y+fsT0nn+xt71YdAN1UM4aMcVS24OhoFypEQOV+wvr2vIIx3y/Nd99sq7b+P05n808WD1ArQQeqtlpJM/n7Zn4vuj2YQC7XKAug62IwtWp5K/RQtpMoeo4mkAO1aEJJiVYYNEVIIQeI391m9eXkn9DDK5PGRbP6fU2Edr7ez6Pw+9b1W6x30XnEtQsjsNbd4XHyFvnnOYmQ3du97d0iu07GcX1a1W/X7R8eNOO+nfh5MOiBtu9ob3v32nvqj13T3XA6m/+VKJD0cOzjiGb7hxjzZhnvPktc431yZrHvT/H7ci/enz+d+d05jfmHTAuA4EKCDoxG7Pn7OH5WxaWnFQ6Us7FC5gLroYfJ39fs87hmrWIczrso2F/VphEoXKwwaF76fi38ULc8I+G/IvTwtZNS/C6/tT3A4JqC2avYg5ZLRBF1FXq4F4VJ76XDGcWWKsDlYlX92/3Dg6ytvU9iPPSqli0Q4nO8PRuC2D882In6WMaxX/PMuV9q8KRwTS3/9wTH+VrH12+ac/ZHIcdymXfJt87+fLxc3D3TtaGZP/jznH+22VJlK+bGoAqCDoxWFJe+pfSiwPQ0JpVNJHdHAfSW4jv7+r3pUNKbZQQbdG2ACjX31eieU+p+n3PBKrha/J58K9TE9nXPrZbvhRDohuK721n9Ka7fXpxGuOSVMCFw1t727uP9w4OnUTMsuc13E2x4PsZtD/a2d78FXid/Bx/ux7Oz9OCDbSo20HTHStCZ8Wjs3YrXNePcBOfspOk+UcBxbCwCDJeF9UbfTZs6CTpAiALT0/j5KpJtj00mb0wBtGXndChZBR92BHVu7TRelF2rMCKx3+fdAp/1cyEruJ317esm/4zpMxS/MzCu79g512/mVaulOIl7wHvBBuA6opPAVmyd8LmgOkvTFfXp3vau5/Cave3dj+uh1wiqPC/ovAk4tCQ6M94vuFZvlfwZCc5ZVVvIxJYhH88JlzzRvYxaCTrAJda6PnxL9a11ftixyuZcR7E6RhGpR2vBh28EdS61CjW8NZEIxIvgvYImkZ64N0F74vdpvePDar/np4Wv1Bzahxgrab07oPVtWib/XL+rwLPr979O1t5HTQQCG4nAw939w4OtCKENcd99F+EGNbZr2tvefRXPgtU2F28HCj0IOHQg3t+3ChwHPVQLP1+cs/sFzqXMazxnZ4PTUDtBB7ih8zo/TP4JQOxEEfX+CFbVryaK3yt+lumCoM6qsL8zkn2AV9fpR+Eb4DLHy8X9M/sZDuWFlD10K8YD/yn+RMH0cYzlxzSBvFwb15sYLlxcv98mcFZGeP0exRi/CePY5xzo1N727qe1Dg/vewhIN/e4HZ0bNhfbXDTnrQk9NF0efu34rzyNcye43q37hXVbea0+fqXmnP1R0PE8s8AE6nDny5cvTiX0IApP96MdUomp0/OsikfNC91Hhc+6RQji/tp1mqE97unq+oxr1AAVAGjdmbF8iauRLrNcGy99MqYfn6Tvoidn3kWFGYCi7B8e3IvQZFu1k+Z5/dwEefcisNKEHn5p6S87ia4bJroBoGeCDlCg6A5xLxLHq32itlYJ5LX/+6rU6moSeOVz/EyiaDQxMcxttHiNTuJlfuWvtWt2db1+VpAHALKItqyTte0y7p7Z+/XuDSaal2f+708xXpqsxvMRXtC1ilZEKOLumbH92f2mrzOp510UGJ3YJmE9WHZeTWQZ98OvnSdtSVGG2J5kdf7uXRBqXT93H3XcAIDhCToAAAAAAAAAAGn8z6kCAAAAAAAAALIQdAAAAAAAAAAA0hB0AAAAAAAAAADSEHQAAAAAAAAAANIQdAAAAAAAAAAA0hB0AAAAAAAAAADSEHQAAAAAAAAAANIQdAAAAAAAAAAA0hB0AAAAAAAAAADSEHQAAAAAAAAAANIQdAAAAAAAAAAA0hB0AAAAAAAAAADSEHQAAAAAAAAAANIQdAAAAAAAAAAA0hB0AAAAAAAAAADSEHQAAAAAAAAAANIQdAAAAAAAAAAA0hB0AAAAAAAAAADSEHQAAAAAAAAAANIQdAAAAAAAAAAA0hB0AAAAAAAAAADSEHQAAAAAAAAAANIQdAAAAAAAAAAA0hB0AAAAAAAAAADSEHQAAAAAAAAAANIQdAAAAAAAAAAA0hB0AAAAAAAAAADSEHQAAAAAAAAAANIQdAAAAAAAAAAA0hB0AAAAAAAAAADSEHQAAAAAAAAAANIQdAAAAAAAAAAA0hB0AAAAAAAAAADSEHQAAAAAAAAAANIQdAAAAAAAAAAA0hB0AAAAAAAAAADSEHQAAAAAAAAAANIQdAAAAAAAAAAA0hB0AAAAAAAAAADSEHQAAAAAAAAAANIQdAAAAAAAAAAA0hB0AAAAAAAAAADSEHQAAAAAAAAAANIQdAAAAAAAAAAA0hB0AAAAAAAAAADSEHQAAAAAAAAAANIQdAAAAAAAAAAA0hB0AAAAAAAAAADSEHQAAAAAAAAAgP9v1w5oAAAAEAbZP7U5vkEOyBAdAAAAAAAAAIAM0QEAAAAAAAAAyBAdAAAAAAAAAIAM0QEAAAAAAAAAyBAdAAAAAAAAAIAM0QEAAAAAAAAAyBAdAAAAAAAAAIAM0QEAAAAAAAAAyBAdAAAAAAAAAIAM0QEAAAAAAAAAyBAdAAAAAAAAAIAM0QEAAAAAAAAAyBAdAAAAAAAAAIAM0QEAAAAAAAAAyBAdAAAAAAAAAIAM0QEAAAAAAAAAyBAdAAAAAAAAAIAM0QEAAAAAAAAAyBAdAAAAAAAAAIAM0QEAAAAAAAAAyBAdAAAAAAAAAIAM0QEAAAAAAAAAyBAdAAAAAAAAAIAM0QEAAAAAAAAAyBAdAAAAAAAAAIAM0QEAAAAAAAAAyBAdAAAAAAAAAIAM0QEAAAAAAAAAyBAdAAAAAAAAAIAM0QEAAAAAAAAAyBAdAAAAAAAAAIAM0QEAAAAAAAAAyBAdAAAAAAAAAIAM0QEAAAAAAAAAyBAdAAAAAAAAAICGbQd9I9ZObbPGxgAAAABJRU5ErkJggg==;" vertex="1" parent="594">
                    <mxGeometry x="141" y="44" width="464" height="133.28" as="geometry"/>
                </mxCell>
                <mxCell id="695" value="1" style="locked=1;" parent="0"/>
                <mxCell id="696" value="インシデント起票" style="html=1;verticalAlign=bottom;endArrow=block;labelBackgroundColor=none;fontSize=20;fontColor=#333333;strokeWidth=2;strokeColor=#333333;entryX=1;entryY=0.134;entryDx=0;entryDy=0;entryPerimeter=0;fontStyle=1" edge="1" parent="695" target="697">
                    <mxGeometry x="-0.169" width="80" relative="1" as="geometry">
                        <mxPoint x="1368" y="370.94600000000014" as="sourcePoint"/>
                        <mxPoint x="1018" y="373" as="targetPoint"/>
                        <mxPoint x="-1" as="offset"/>
                    </mxGeometry>
                </mxCell>
                <mxCell id="697" value="Incident - NEW" style="swimlane;fontStyle=1;align=center;verticalAlign=top;childLayout=stackLayout;horizontal=1;startSize=33;horizontalStack=0;resizeParent=1;resizeParentMax=0;resizeLast=0;collapsible=1;marginBottom=0;labelBackgroundColor=none;fillColor=#283C3E;fontSize=20;strokeColor=#283C3E;separatorColor=#CCCCCC;fontColor=#FFFFFF;" vertex="1" parent="695">
                    <mxGeometry x="829" y="355" width="255" height="119" as="geometry"/>
                </mxCell>
                <mxCell id="698" value="APPROVAL_REQUEST" style="text;strokeColor=none;fillColor=#FFFFFF;align=left;verticalAlign=top;spacingLeft=4;spacingRight=4;overflow=hidden;rotatable=0;points=[[0,0.5],[1,0.5]];portConstraint=eastwest;fontColor=#FF0000;fontSize=20;fontStyle=1" vertex="1" parent="697">
                    <mxGeometry y="33" width="255" height="39" as="geometry"/>
                </mxCell>
                <mxCell id="699" value="" style="line;strokeWidth=1;fillColor=none;align=left;verticalAlign=middle;spacingTop=-1;spacingLeft=3;spacingRight=3;rotatable=0;labelPosition=right;points=[];portConstraint=eastwest;fontStyle=1" vertex="1" parent="697">
                    <mxGeometry y="72" width="255" height="8" as="geometry"/>
                </mxCell>
                <mxCell id="700" value=" " style="text;strokeColor=none;fillColor=#CCCCCC;align=left;verticalAlign=top;spacingLeft=4;spacingRight=4;overflow=hidden;rotatable=0;points=[[0,0.5],[1,0.5]];portConstraint=eastwest;fontColor=#333333;fontSize=20;fontStyle=1" vertex="1" parent="697">
                    <mxGeometry y="80" width="255" height="39" as="geometry"/>
                </mxCell>
                <mxCell id="749" value="" style="html=1;points=[];perimeter=orthogonalPerimeter;labelBackgroundColor=#FFFFFF;strokeColor=#333333;strokeWidth=2;fillColor=#FFFFFF;fontStyle=1" vertex="1" parent="695">
                    <mxGeometry x="1362.5" y="358" width="13" height="751" as="geometry"/>
                </mxCell>
                <mxCell id="701" value="2" style="locked=1;" parent="0"/>
                <mxCell id="702" value="詳細確認" style="html=1;verticalAlign=bottom;endArrow=block;labelBackgroundColor=none;fontSize=20;fontColor=#333333;strokeWidth=2;strokeColor=#333333;fontStyle=1;entryX=0;entryY=0.5;entryDx=0;entryDy=0;" edge="1" parent="701">
                    <mxGeometry x="-0.0326" width="80" relative="1" as="geometry">
                        <mxPoint x="593" y="424.5000000000002" as="sourcePoint"/>
                        <mxPoint x="829" y="424.4999999999998" as="targetPoint"/>
                        <mxPoint as="offset"/>
                    </mxGeometry>
                </mxCell>
                <mxCell id="703" value="" style="html=1;points=[];perimeter=orthogonalPerimeter;labelBackgroundColor=#FFFFFF;strokeColor=#333333;strokeWidth=2;fillColor=#FFFFFF;fontStyle=1" vertex="1" parent="701">
                    <mxGeometry x="587.5" y="416" width="13" height="102" as="geometry"/>
                </mxCell>
                <mxCell id="704" value="3" style="locked=1;" parent="0"/>
                <mxCell id="711" value="承認依頼" style="html=1;verticalAlign=bottom;endArrow=block;labelBackgroundColor=none;fontSize=20;fontColor=#333333;strokeWidth=2;strokeColor=#333333;fontStyle=1;" edge="1" parent="704">
                    <mxGeometry x="0.1985" width="80" relative="1" as="geometry">
                        <mxPoint x="586" y="504" as="sourcePoint"/>
                        <mxPoint x="199.46153846153857" y="504.4939999999999" as="targetPoint"/>
                        <mxPoint x="-1" as="offset"/>
                    </mxGeometry>
                </mxCell>
                <mxCell id="705" value="4" style="locked=1;" parent="0"/>
                <mxCell id="715" value="承認された場合" style="shape=umlFrame;whiteSpace=wrap;html=1;labelBackgroundColor=none;fontSize=20;fontColor=#FF0000;strokeColor=#333333;strokeWidth=1;fillColor=#FFFFFF;width=161;height=25;fontStyle=1" vertex="1" parent="705">
                    <mxGeometry x="102" y="528" width="1780" height="375" as="geometry"/>
                </mxCell>
                <mxCell id="713" value="" style="html=1;points=[];perimeter=orthogonalPerimeter;labelBackgroundColor=#FFFFFF;strokeColor=#333333;strokeWidth=2;fillColor=#FFFFFF;fontStyle=1" vertex="1" parent="705">
                    <mxGeometry x="587.5" y="595" width="13" height="72" as="geometry"/>
                </mxCell>
                <mxCell id="714" value="承認" style="html=1;verticalAlign=bottom;endArrow=block;labelBackgroundColor=none;fontSize=20;fontColor=#333333;strokeWidth=2;strokeColor=#333333;entryX=-0.05;entryY=0.012;entryDx=0;entryDy=0;entryPerimeter=0;fontStyle=1" edge="1" parent="705" target="713">
                    <mxGeometry width="80" relative="1" as="geometry">
                        <mxPoint x="200" y="596" as="sourcePoint"/>
                        <mxPoint x="749" y="599" as="targetPoint"/>
                    </mxGeometry>
                </mxCell>
                <mxCell id="706" value="5" style="locked=1;" parent="0"/>
                <mxCell id="725" value="作業メモ更新" style="html=1;verticalAlign=bottom;endArrow=block;labelBackgroundColor=none;fontSize=20;fontColor=#333333;strokeWidth=2;strokeColor=#333333;entryX=-0.005;entryY=0.043;entryDx=0;entryDy=0;entryPerimeter=0;fontStyle=1;exitX=0.962;exitY=0.666;exitDx=0;exitDy=0;exitPerimeter=0;" edge="1" parent="706" target="729">
                    <mxGeometry x="-0.0374" width="80" relative="1" as="geometry">
                        <mxPoint x="600.0060000000008" y="642.9519999999998" as="sourcePoint"/>
                        <mxPoint x="839" y="390.4999999999998" as="targetPoint"/>
                        <mxPoint as="offset"/>
                    </mxGeometry>
                </mxCell>
                <mxCell id="726" value="Incident - NEW" style="swimlane;fontStyle=1;align=center;verticalAlign=top;childLayout=stackLayout;horizontal=1;startSize=34;horizontalStack=0;resizeParent=1;resizeParentMax=0;resizeLast=0;collapsible=1;marginBottom=0;labelBackgroundColor=none;fillColor=#283C3E;fontSize=20;strokeColor=#283C3E;fontColor=#FFFFFF;" vertex="1" parent="706">
                    <mxGeometry x="829" y="560" width="255" height="126" as="geometry"/>
                </mxCell>
                <mxCell id="727" value="APPROVAL_REQUEST" style="text;strokeColor=none;fillColor=#CCCCCC;align=left;verticalAlign=top;spacingLeft=4;spacingRight=4;overflow=hidden;rotatable=0;points=[[0,0.5],[1,0.5]];portConstraint=eastwest;fontColor=#333333;fontSize=20;fontStyle=1" vertex="1" parent="726">
                    <mxGeometry y="34" width="255" height="39" as="geometry"/>
                </mxCell>
                <mxCell id="728" value="" style="line;strokeWidth=1;fillColor=none;align=left;verticalAlign=middle;spacingTop=-1;spacingLeft=3;spacingRight=3;rotatable=0;labelPosition=right;points=[];portConstraint=eastwest;fontStyle=1" vertex="1" parent="726">
                    <mxGeometry y="73" width="255" height="8" as="geometry"/>
                </mxCell>
                <mxCell id="729" value="APPROVED_ACTION" style="text;strokeColor=none;fillColor=#FFFFFF;align=left;verticalAlign=top;spacingLeft=4;spacingRight=4;overflow=hidden;rotatable=0;points=[[0,0.5],[1,0.5]];portConstraint=eastwest;fontColor=#FF0000;fontSize=20;fontStyle=1" vertex="1" parent="726">
                    <mxGeometry y="81" width="255" height="45" as="geometry"/>
                </mxCell>
                <mxCell id="707" value="6" style="locked=1;" parent="0"/>
                <mxCell id="730" value="作業メモ確認" style="html=1;verticalAlign=bottom;endArrow=block;labelBackgroundColor=none;fontSize=20;fontColor=#333333;strokeWidth=2;strokeColor=#333333;fontStyle=1" edge="1" parent="707">
                    <mxGeometry width="80" relative="1" as="geometry">
                        <mxPoint x="1362" y="676" as="sourcePoint"/>
                        <mxPoint x="1087" y="676" as="targetPoint"/>
                    </mxGeometry>
                </mxCell>
                <mxCell id="708" value="7" style="locked=1;" parent="0"/>
                <mxCell id="731" value="対処を依頼" style="html=1;verticalAlign=bottom;endArrow=block;labelBackgroundColor=none;fontSize=20;fontColor=#333333;strokeWidth=2;strokeColor=#333333;fontStyle=1" edge="1" parent="708" target="732">
                    <mxGeometry width="80" relative="1" as="geometry">
                        <mxPoint x="1376" y="807" as="sourcePoint"/>
                        <mxPoint x="858.0020000000004" y="782.0140000000001" as="targetPoint"/>
                    </mxGeometry>
                </mxCell>
                <mxCell id="732" value="" style="html=1;points=[];perimeter=orthogonalPerimeter;labelBackgroundColor=#FFFFFF;strokeColor=#333333;strokeWidth=2;fillColor=#FFFFFF;fontStyle=1" vertex="1" parent="708">
                    <mxGeometry x="1697.5" y="808" width="13" height="46" as="geometry"/>
                </mxCell>
                <mxCell id="733" value="対処結果" style="html=1;verticalAlign=bottom;endArrow=block;labelBackgroundColor=none;fontSize=20;fontColor=#333333;strokeWidth=2;strokeColor=#333333;dashed=1;dashPattern=1 1;fontStyle=1;entryX=0.533;entryY=0.691;entryDx=0;entryDy=0;entryPerimeter=0;" edge="1" parent="708">
                    <mxGeometry width="80" relative="1" as="geometry">
                        <mxPoint x="1695" y="847.04" as="sourcePoint"/>
                        <mxPoint x="1376.9860000000003" y="846.2749999999996" as="targetPoint"/>
                    </mxGeometry>
                </mxCell>
                <mxCell id="750" value="Incident - In Progress" style="swimlane;fontStyle=1;align=center;verticalAlign=top;childLayout=stackLayout;horizontal=1;startSize=34;horizontalStack=0;resizeParent=1;resizeParentMax=0;resizeLast=0;collapsible=1;marginBottom=0;labelBackgroundColor=none;fillColor=#283C3E;fontSize=20;strokeColor=#283C3E;fontColor=#FF6666;" vertex="1" parent="708">
                    <mxGeometry x="829" y="721" width="255" height="126" as="geometry"/>
                </mxCell>
                <mxCell id="751" value="APPROVAL_REQUEST" style="text;strokeColor=none;fillColor=#CCCCCC;align=left;verticalAlign=top;spacingLeft=4;spacingRight=4;overflow=hidden;rotatable=0;points=[[0,0.5],[1,0.5]];portConstraint=eastwest;fontColor=#333333;fontSize=20;fontStyle=1" vertex="1" parent="750">
                    <mxGeometry y="34" width="255" height="39" as="geometry"/>
                </mxCell>
                <mxCell id="752" value="" style="line;strokeWidth=1;fillColor=none;align=left;verticalAlign=middle;spacingTop=-1;spacingLeft=3;spacingRight=3;rotatable=0;labelPosition=right;points=[];portConstraint=eastwest;fontStyle=1" vertex="1" parent="750">
                    <mxGeometry y="73" width="255" height="8" as="geometry"/>
                </mxCell>
                <mxCell id="753" value="APPROVED_ACTION" style="text;strokeColor=none;fillColor=#CCCCCC;align=left;verticalAlign=top;spacingLeft=4;spacingRight=4;overflow=hidden;rotatable=0;points=[[0,0.5],[1,0.5]];portConstraint=eastwest;fontColor=#333333;fontSize=20;fontStyle=1" vertex="1" parent="750">
                    <mxGeometry y="81" width="255" height="45" as="geometry"/>
                </mxCell>
                <mxCell id="754" value="ステータス更新" style="html=1;verticalAlign=bottom;endArrow=block;labelBackgroundColor=none;fontSize=20;fontColor=#333333;strokeWidth=2;strokeColor=#333333;entryX=0.553;entryY=0.568;entryDx=0;entryDy=0;entryPerimeter=0;fontStyle=1" edge="1" parent="708" target="715">
                    <mxGeometry width="80" relative="1" as="geometry">
                        <mxPoint x="1362" y="741" as="sourcePoint"/>
                        <mxPoint x="1110.7650000000003" y="741.145" as="targetPoint"/>
                    </mxGeometry>
                </mxCell>
                <mxCell id="757" value="…" style="rounded=0;whiteSpace=wrap;html=1;labelBackgroundColor=none;fontSize=20;fontColor=#1A1A1A;strokeColor=none;strokeWidth=1;fillColor=none;opacity=20;fontStyle=1" vertex="1" parent="708">
                    <mxGeometry x="1475" y="841" width="120" height="60" as="geometry"/>
                </mxCell>
                <mxCell id="709" value="8" style="locked=1;" parent="0"/>
                <mxCell id="737" value="" style="html=1;points=[];perimeter=orthogonalPerimeter;labelBackgroundColor=#FFFFFF;strokeColor=#333333;strokeWidth=2;fillColor=#FFFFFF;fontStyle=1" vertex="1" parent="709">
                    <mxGeometry x="587.5" y="984" width="13" height="72" as="geometry"/>
                </mxCell>
                <mxCell id="738" value="却下" style="html=1;verticalAlign=bottom;endArrow=block;labelBackgroundColor=none;fontSize=20;fontColor=#333333;strokeWidth=2;strokeColor=#333333;entryX=-0.05;entryY=0.012;entryDx=0;entryDy=0;entryPerimeter=0;fontStyle=1" edge="1" parent="709" target="737">
                    <mxGeometry width="80" relative="1" as="geometry">
                        <mxPoint x="200" y="985" as="sourcePoint"/>
                        <mxPoint x="749" y="988" as="targetPoint"/>
                    </mxGeometry>
                </mxCell>
                <mxCell id="739" value="却下された場合" style="shape=umlFrame;whiteSpace=wrap;html=1;labelBackgroundColor=none;fontSize=20;fontColor=#FF0000;strokeColor=#333333;strokeWidth=1;fillColor=#FFFFFF;width=161;height=25;fontStyle=1" vertex="1" parent="709">
                    <mxGeometry x="102" y="904" width="1780" height="252" as="geometry"/>
                </mxCell>
                <mxCell id="710" value="9" style="locked=1;" parent="0"/>
                <mxCell id="740" value="作業メモ更新" style="html=1;verticalAlign=bottom;endArrow=block;labelBackgroundColor=none;fontSize=20;fontColor=#333333;strokeWidth=2;strokeColor=#333333;entryX=-0.005;entryY=0.043;entryDx=0;entryDy=0;entryPerimeter=0;fontStyle=1;" edge="1" parent="710" target="744">
                    <mxGeometry x="-0.0374" width="80" relative="1" as="geometry">
                        <mxPoint x="602" y="1032" as="sourcePoint"/>
                        <mxPoint x="839" y="779.4999999999998" as="targetPoint"/>
                        <mxPoint as="offset"/>
                    </mxGeometry>
                </mxCell>
                <mxCell id="741" value="Incident - NEW" style="swimlane;fontStyle=1;align=center;verticalAlign=top;childLayout=stackLayout;horizontal=1;startSize=34;horizontalStack=0;resizeParent=1;resizeParentMax=0;resizeLast=0;collapsible=1;marginBottom=0;labelBackgroundColor=none;fillColor=#283C3E;fontSize=20;strokeColor=#283C3E;fontColor=#FFFFFF;" vertex="1" parent="710">
                    <mxGeometry x="829" y="949" width="255" height="120" as="geometry"/>
                </mxCell>
                <mxCell id="742" value="APPROVAL_REQUEST" style="text;strokeColor=none;fillColor=#CCCCCC;align=left;verticalAlign=top;spacingLeft=4;spacingRight=4;overflow=hidden;rotatable=0;points=[[0,0.5],[1,0.5]];portConstraint=eastwest;fontColor=#333333;fontSize=20;fontStyle=1" vertex="1" parent="741">
                    <mxGeometry y="34" width="255" height="39" as="geometry"/>
                </mxCell>
                <mxCell id="743" value="" style="line;strokeWidth=1;fillColor=#FFFFFF;align=left;verticalAlign=middle;spacingTop=-1;spacingLeft=3;spacingRight=3;rotatable=0;labelPosition=right;points=[];portConstraint=eastwest;fontStyle=1" vertex="1" parent="741">
                    <mxGeometry y="73" width="255" height="8" as="geometry"/>
                </mxCell>
                <mxCell id="744" value="REJECTED_ACTION" style="text;strokeColor=none;fillColor=#FFFFFF;align=left;verticalAlign=top;spacingLeft=4;spacingRight=4;overflow=hidden;rotatable=0;points=[[0,0.5],[1,0.5]];portConstraint=eastwest;fontColor=#FF0000;fontSize=20;fontStyle=1" vertex="1" parent="741">
                    <mxGeometry y="81" width="255" height="39" as="geometry"/>
                </mxCell>
                <mxCell id="734" value="10" style="locked=1;" parent="0"/>
                <mxCell id="745" value="作業メモ確認" style="html=1;verticalAlign=bottom;endArrow=block;labelBackgroundColor=none;fontSize=20;fontColor=#333333;strokeWidth=2;strokeColor=#333333;fontStyle=1" edge="1" parent="734">
                    <mxGeometry width="80" relative="1" as="geometry">
                        <mxPoint x="1362" y="1060" as="sourcePoint"/>
                        <mxPoint x="1085" y="1060" as="targetPoint"/>
                    </mxGeometry>
                </mxCell>
                <mxCell id="735" value="11" style="locked=1;" parent="0"/>
                <mxCell id="746" value="" style="shape=umlDestroy;whiteSpace=wrap;html=1;strokeWidth=7;labelBackgroundColor=none;fontSize=20;fontColor=#FF0000;fillColor=#FFFFFF;strokeColor=#333333;fontStyle=1" vertex="1" parent="735">
                    <mxGeometry x="1356" y="1110" width="30" height="30" as="geometry"/>
                </mxCell>
            </root>
        </mxGraphModel>
    </diagram>
</mxfile>